<svg xmlns="http://www.w3.org/2000/svg" width="1024.125" height="717" viewBox="0 0 1024.125 717">
  <g id="undraw_launching_125y" transform="translate(0.02)">
    <path id="Path_215" data-name="Path 215" d="M1052.1,537.834c0-64.392-26.91-121.272-68.035-155.469q.85-9.758.9-19.793c0-104.559-70.936-189.308-158.45-189.308-27.912,0-54.133,8.63-76.907,23.768C687.661,149.031,606.8,120,518.334,120,374.44,120,250.58,196.9,195.651,307.213c-3.053-.206-6.123-.322-9.221-.322-87.5,0-158.45,84.757-158.45,189.308,0,38.44,9.6,74.194,26.068,104.049h0c0,94.067,75.367,170.329,168.3,170.329h674.21c72.995,0,132.167-59.871,132.167-133.734h0C1043.547,608.035,1052.1,574.134,1052.1,537.834Z" transform="translate(-28 -56.915)" fill="#1abc9c" opacity="0.1"/>
    <path id="Path_214" data-name="Path 214" d="M1051.253,569.621a218.522,218.522,0,0,1-7.94,36.354,204.987,204.987,0,0,1-13.5,33.122c0,73.863-59.173,133.734-132.176,133.734H223.49a166.761,166.761,0,0,1-116.6-47.539c.291-.076.586-.157.9-.22,62.18-16.49,127.79-22.183,181.725-61.348q-110.244-18.289-219.2-45.4c-4.476-1.128-9.561-2.82-14.78-4.592-.242-3.724-.376-7.475-.376-11.253-.331-.6-.653-1.2-.976-1.79q-2.131-3.966-4.1-8.057a217.128,217.128,0,0,1-21-94.2c0-54.1,19.005-102.948,49.46-137.4,204.884,16.946,410.994,9.767,616.5,2.533Q604.907,345.66,514.8,327.7q-146.965-29.228-293.929-58.492c62.53-88.338,172.881-147,298.584-147,88.463,0,169.318,29.049,231.265,77.05,22.774-15.138,48.994-23.776,76.9-23.776,58.1,0,108.883,37.357,136.464,93.1h0c13.947,28.2,21.95,61.088,21.95,96.216,0,6.266-.26,12.533-.77,18.7,0,.367-.054.725-.089,1.1,19.157,15.935,35.226,36.793,46.917,61.044.143.3.286.591.421.9q3.071,6.419,5.711,13.124h-.17q-11.279,2.5-22.532,5.094-121.29,28.02-240.334,67.91-34.125,11.441-68.035,23.83c-19.086,6.983-43.632,22.8-63.416,24.17,135.264-9.077,271.612,4.154,406.25-10.921Z" transform="translate(-28.115 -57.147)" fill="#1abc9c" opacity="0.1"/>
    <ellipse id="Ellipse_43" data-name="Ellipse 43" cx="26.176" cy="5.031" rx="26.176" ry="5.031" transform="translate(203.673 705.076)" fill="#1abc9c"/>
    <ellipse id="Ellipse_44" data-name="Ellipse 44" cx="3.044" cy="3.993" rx="3.044" ry="3.993" transform="translate(226.367 703.975)" fill="#3f3d56"/>
    <ellipse id="Ellipse_45" data-name="Ellipse 45" cx="3.044" cy="3.993" rx="3.044" ry="3.993" transform="translate(226.367 699.096)" fill="#3f3d56"/>
    <ellipse id="Ellipse_46" data-name="Ellipse 46" cx="3.044" cy="3.993" rx="3.044" ry="3.993" transform="translate(226.367 694.226)" fill="#3f3d56"/>
    <ellipse id="Ellipse_47" data-name="Ellipse 47" cx="3.044" cy="3.993" rx="3.044" ry="3.993" transform="translate(226.367 689.347)" fill="#3f3d56"/>
    <ellipse id="Ellipse_48" data-name="Ellipse 48" cx="3.044" cy="3.993" rx="3.044" ry="3.993" transform="translate(226.367 684.468)" fill="#3f3d56"/>
    <ellipse id="Ellipse_49" data-name="Ellipse 49" cx="3.044" cy="3.993" rx="3.044" ry="3.993" transform="translate(226.367 679.599)" fill="#3f3d56"/>
    <ellipse id="Ellipse_50" data-name="Ellipse 50" cx="3.044" cy="3.993" rx="3.044" ry="3.993" transform="translate(226.367 674.72)" fill="#3f3d56"/>
    <path id="Path_233" data-name="Path 233" d="M293.946,767.66a14.119,14.119,0,0,0,1.137-1.674l-8-1.316,8.657.063a14.636,14.636,0,0,0,.278-11.566l-11.638,6.025,10.742-7.869a14.6,14.6,0,1,0-24.108,16.337,14.27,14.27,0,0,0-1.665,2.686l10.393,5.371L268.657,772a14.6,14.6,0,0,0,2.354,13.706,14.6,14.6,0,1,0,22.944,0,14.592,14.592,0,0,0,0-18.047Z" transform="translate(-53.14 -122.312)" fill="#1abc9c"/>
    <path id="Path_234" data-name="Path 234" d="M267.889,780.485a14.511,14.511,0,0,0,3.124,9.024,14.6,14.6,0,1,0,22.944,0C295.918,787.029,267.889,778.847,267.889,780.485Z" transform="translate(-53.142 -126.113)" opacity="0.1"/>
    <ellipse id="Ellipse_51" data-name="Ellipse 51" cx="35.996" cy="6.087" rx="35.996" ry="6.087" transform="translate(787.754 704.825)" fill="#1abc9c"/>
    <path id="Path_235" data-name="Path 235" d="M960.923,830.608a10.438,10.438,0,0,0,3.429-5.174c.448-2.059-.43-4.53-2.4-5.282-2.2-.841-4.557.689-6.338,2.229s-3.831,3.3-6.159,2.972a9.4,9.4,0,0,0,2.9-8.782,3.687,3.687,0,0,0-.806-1.79c-1.227-1.307-3.438-.743-4.906.286-4.655,3.268-5.953,9.6-5.98,15.281-.466-2.05-.072-4.19-.081-6.266s-.591-4.476-2.372-5.568a7.09,7.09,0,0,0-3.581-.85c-2.086-.081-4.422.134-5.846,1.665-1.79,1.9-1.316,5.085.224,7.162s3.894,3.411,6.06,4.852a13.429,13.429,0,0,1,4.324,4.127,3.718,3.718,0,0,1,.322.743h13.124a36.5,36.5,0,0,0,8.084-5.6Z" transform="translate(-122.286 -129.65)" fill="#1abc9c"/>
    <g id="Group_19" data-name="Group 19" transform="translate(133 -86)">
      <path id="Path_236" data-name="Path 236" d="M732.34,415.372l.655-1.461-.873-.392-.655,1.461-3.426,3.727,3.8,1.7Z" transform="translate(-85.668 -74.126)" fill="#3f3d56"/>
      <path id="Path_237" data-name="Path 237" d="M737.343,417.675l.67-1.5-.9-.407-.67,1.5-3.517,3.825,3.9,1.747Z" transform="translate(-86.876 -74.682)" fill="#3f3d56"/>
      <path id="Path_238" data-name="Path 238" d="M742.437,419.892l.655-1.461-.881-.392-.655,1.461-3.426,3.727,3.8,1.7Z" transform="translate(-88.16 -75.243)" fill="#3f3d56"/>
      <path id="Path_239" data-name="Path 239" d="M778.353,436.035l.67-1.5-.9-.407-.67,1.5-3.517,3.825,3.9,1.747Z" transform="translate(-97.004 -79.217)" fill="#3f3d56"/>
      <path id="Path_240" data-name="Path 240" d="M783.533,438.355l.67-1.5-.9-.407-.678,1.5-3.509,3.825,3.9,1.747Z" transform="translate(-98.284 -79.79)" fill="#3f3d56"/>
      <path id="Path_241" data-name="Path 241" d="M788.705,440.668l.678-1.5-.9-.4-.67,1.5-3.509,3.825,3.893,1.747Z" transform="translate(-99.563 -80.363)" fill="#3f3d56"/>
      <path id="Path_242" data-name="Path 242" d="M754.863,425.515l.67-1.5-.9-.407-.67,1.506-3.517,3.825,3.9,1.739Z" transform="translate(-91.203 -76.619)" fill="#3f3d56"/>
      <path id="Path_243" data-name="Path 243" d="M760.043,427.835l.67-1.5-.9-.407-.67,1.5-3.509,3.825L759.523,433Z" transform="translate(-92.482 -77.192)" fill="#3f3d56"/>
      <path id="Path_244" data-name="Path 244" d="M765.213,430.148l.67-1.5-.9-.4-.67,1.5-3.517,3.825,3.9,1.747Z" transform="translate(-93.759 -77.765)" fill="#3f3d56"/>
      <path id="Path_245" data-name="Path 245" d="M819.955,328.052c2.2-5.211.068-17.063-3.208-18.532s-13.246,4.97-15.67,10.083l-.151-.075L754.48,423.263l19.036,8.554,46.446-103.765Z" transform="translate(-113.282 -85.684)" fill="#ececf3"/>
      <path id="Path_246" data-name="Path 246" d="M866.142,348.732c2.191-5.211.068-17.063-3.215-18.532s-13.238,4.97-15.663,10.083l-.158-.075L800.66,443.943l19.081,8.524,46.446-103.735Z" transform="translate(-124.688 -90.792)" fill="#ececf3"/>
      <path id="Path_247" data-name="Path 247" d="M864.309,271.818c3.276-7.621,3.012-23.7-.241-25.173s-15.136,9.2-18.637,16.724l-.151-.075L777.17,415.4l19.036,8.524,68.11-152.109Z" transform="translate(-118.887 -70.174)" fill="#fff"/>
      <rect id="Rectangle_59" data-name="Rectangle 59" width="3.938" height="8.539" rx="1.969" transform="translate(740.511 182.291) rotate(24.12)" fill="#3f3d56"/>
      <path id="Path_248" data-name="Path 248" d="M690.17,494.393,709.507,497c3.125.422,6.453.813,9.322-.5,4.752-2.176,6.559-8.185,10.934-11.032,4.932-3.215,12.139-1.175,15.58,3.6a15.6,15.6,0,0,0,2.854,3.645c4.947,3.765,12.8-3.313,17.982.181,2.583,1.755,3.4,5.678,6.348,6.717,1.95.685,4.1-.2,6.167-.038,5.158.414,7.485,7.033,6.4,12.093s-4.217,9.533-5.06,14.631,2.214,11.6,7.372,11.3" transform="translate(-97.399 -128.809)" fill="#fff" opacity="0.3"/>
    </g>
    <circle id="Ellipse_52" data-name="Ellipse 52" cx="10.742" cy="10.742" r="10.742" transform="translate(718.842 58.188)" fill="#1abc9c" opacity="0.1"/>
    <circle id="Ellipse_53" data-name="Ellipse 53" cx="10.742" cy="10.742" r="10.742" transform="translate(848.646)" fill="#1abc9c" opacity="0.1"/>
    <circle id="Ellipse_54" data-name="Ellipse 54" cx="10.742" cy="10.742" r="10.742" transform="translate(794.934 40.284)" fill="#1abc9c" opacity="0.1"/>
    <circle id="Ellipse_55" data-name="Ellipse 55" cx="10.742" cy="10.742" r="10.742" transform="translate(921.157 133.385)" fill="#1abc9c" opacity="0.1"/>
    <circle id="Ellipse_56" data-name="Ellipse 56" cx="10.742" cy="10.742" r="10.742" transform="translate(859.388 68.93)" fill="#1abc9c" opacity="0.1"/>
  </g>
</svg>
