<svg xmlns="http://www.w3.org/2000/svg" width="360.688" height="360.687" viewBox="0 0 360.688 360.687">
  <g id="Group_21" data-name="Group 21" transform="translate(-459.656 -232)">
    <g id="Path_1" data-name="Path 1" transform="translate(459.656 232)" fill="none" opacity="0.5">
      <path d="M8.487,0H352.2c4.687,0,8.487,5.06,8.487,11.3V349.386c0,6.241-3.8,11.3-8.487,11.3H8.487c-4.687,0-8.487-5.06-8.487-11.3V11.3C0,5.06,3.8,0,8.487,0Z" stroke="none"/>
      <path d="M 8.486724853515625 2.999969482421875 C 6.73223876953125 2.999969482421875 5.476776123046875 4.3228759765625 4.88458251953125 5.111419677734375 C 3.6868896484375 6.706268310546875 2.999969482421875 8.96221923828125 2.999969482421875 11.30087280273438 L 2.999969482421875 349.3863220214844 C 2.999969482421875 351.7249755859375 3.6868896484375 353.9809875488281 4.88458251953125 355.5757751464844 C 5.476776123046875 356.3643188476563 6.732177734375 357.6872253417969 8.486724853515625 357.6872253417969 L 352.2004699707031 357.6872253417969 C 353.9550170898438 357.6872253417969 355.2104187011719 356.3643188476563 355.8026428222656 355.5757751464844 C 357.0003356933594 353.9809875488281 357.6872253417969 351.7249755859375 357.6872253417969 349.3863220214844 L 357.6872253417969 11.30087280273438 C 357.6872253417969 8.96221923828125 357.0003356933594 6.706268310546875 355.8026428222656 5.111419677734375 C 355.2104187011719 4.3228759765625 353.9549865722656 2.999969482421875 352.2004699707031 2.999969482421875 L 8.486724853515625 2.999969482421875 M 8.486724853515625 -3.0517578125e-05 L 352.2004699707031 -3.0517578125e-05 C 356.8875732421875 -3.0517578125e-05 360.6872253417969 5.0595703125 360.6872253417969 11.30087280273438 L 360.6872253417969 349.3863220214844 C 360.6872253417969 355.627685546875 356.8875732421875 360.6872253417969 352.2004699707031 360.6872253417969 L 8.486724853515625 360.6872253417969 C 3.79962158203125 360.6872253417969 -3.0517578125e-05 355.627685546875 -3.0517578125e-05 349.3863220214844 L -3.0517578125e-05 11.30087280273438 C -3.0517578125e-05 5.0595703125 3.79962158203125 -3.0517578125e-05 8.486724853515625 -3.0517578125e-05 Z" stroke="none" fill="#1abc9c"/>
    </g>
    <g id="Group_11" data-name="Group 11" transform="translate(-240.955 -150.03)">
      <path id="Path_174" data-name="Path 174" d="M145.153,256.611a5.606,5.606,0,0,1-7.143-6.586c3.261-13.569,15.663-46.751,60.843-60.708,19.57-6.045,38.339-6.149,55.76-.309a90.541,90.541,0,0,1,28.4,15.89,5.559,5.559,0,0,1,.911,7.809l-.034.043a5.69,5.69,0,0,1-7.929.9c-8.246-6.5-33.268-26.234-73.823-13.707-39.6,12.233-50.356,40.846-53.146,52.552a5.522,5.522,0,0,1-3.837,4.116Z" transform="translate(665.083 285.326)" fill="#1ABC9C"/>
      <path id="Path_175" data-name="Path 175" d="M288.882,359.419a5.573,5.573,0,0,1-1.385.26c-35.3,1.9-57.753-27.422-58.675-28.645l-.171-.282c-.563-.873-14.151-21.547-8.169-37.966,2.748-7.506,8.824-12.775,18.113-15.644,8.639-2.668,15.707-1.879,21.724,2.417,4.933,3.5,8.1,8.721,11.16,13.762,6.374,10.467,10.28,15.792,22.394,12.72,5.319-1.35,7.8-5.509,8.938-8.748,3.055-8.815.347-20.833-6.816-29.926-9.255-11.8-35.154-31.388-67.108-21.517a58.649,58.649,0,0,0-32.292,23.96,61.569,61.569,0,0,0-9.876,32.277c-.124,20.471,16.653,47.4,16.812,47.648a5.549,5.549,0,0,1-1.763,7.647l-.052.032a5.682,5.682,0,0,1-7.782-1.741c-.757-1.232-18.672-29.948-18.528-53.608.2-25.645,15.785-56.252,50.186-66.879a70.882,70.882,0,0,1,48.337,2.361c12.188,5.028,23.469,13.351,30.926,22.855,9.526,12.131,12.882,28.01,8.545,40.4-2.891,8.262-8.876,13.963-16.83,16-20.73,5.273-28.851-8-34.774-17.688-6.082-9.929-9.446-14.584-19.957-11.337-5.772,1.783-9.327,4.64-10.823,8.745-2.035,5.611-.106,12.8,1.87,17.846l.062.158a45.578,45.578,0,0,0,11.564,16.82c8.132,7.51,23.23,18.217,42.473,17.184a5.557,5.557,0,0,1,5.891,5.2q0,.027,0,.053a5.679,5.679,0,0,1-4,5.631Z" transform="translate(644.496 259.372)" fill="#1ABC9C"/>
      <path id="Path_176" data-name="Path 176" d="M272.791,395.872a5.7,5.7,0,0,1-4.457-.466c-17.409-9.863-29.63-23.13-38.43-41.723l-.035-.115c-5.546-12.4-8.885-31.338-1.52-47.347,5.437-11.812,15.643-20.115,30.282-24.637,17.315-5.349,33.438-1.411,46.67,11.334a69.156,69.156,0,0,1,14.441,20.453,5.651,5.651,0,1,1-10.4,4.427,57.909,57.909,0,0,0-12.175-17.049c-10.2-9.7-22.056-12.573-35.281-8.488-11.429,3.53-19.3,9.772-23.327,18.553-5.81,12.639-2.819,28.422,1.522,38.135,7.76,16.445,18.523,28.11,33.845,36.775a5.533,5.533,0,0,1,2.1,7.538l-.043.075A5.675,5.675,0,0,1,272.791,395.872Z" transform="translate(617.785 233.461)" fill="#1ABC9C"/>
      <circle id="Ellipse_18" data-name="Ellipse 18" cx="7.201" cy="7.201" r="7.201" transform="translate(885.209 559.345)" fill="#1ABC9C"/>
    </g>
  </g>
</svg>
