<svg xmlns="http://www.w3.org/2000/svg" width="663" height="387" viewBox="0 0 663 387">
  <g id="Group_16" data-name="Group 16" transform="translate(-308 -213)">
    <g id="Path_1" data-name="Path 1" transform="translate(308 217)" fill="none" opacity="0.5">
      <path d="M15.6,0H647.4C656.016,0,663,5.373,663,12V371c0,6.627-6.984,12-15.6,12H15.6C6.984,383,0,377.627,0,371V12C0,5.373,6.984,0,15.6,0Z" stroke="none"/>
      <path d="M 15.5999755859375 3 C 13.8096923828125 3 12.0789794921875 3.26776123046875 10.4559326171875 3.79583740234375 C 8.92431640625 4.294158935546875 7.55914306640625 4.99957275390625 6.39825439453125 5.892578125 C 4.20684814453125 7.5782470703125 3 9.74725341796875 3 12 L 3 371 C 3 373.2527465820313 4.20684814453125 375.4217529296875 6.39825439453125 377.107421875 C 7.55914306640625 378.0004272460938 8.92431640625 378.7058410644531 10.4559326171875 379.2041625976563 C 12.0789794921875 379.7322387695313 13.8096923828125 380 15.5999755859375 380 L 647.4000244140625 380 C 649.1902465820313 380 650.9210205078125 379.7322387695313 652.5440063476563 379.2041625976563 C 654.0755615234375 378.7058410644531 655.4408569335938 378.0004272460938 656.6017456054688 377.107421875 C 658.7931518554688 375.4216613769531 660 373.2527465820313 660 371 L 660 12 C 660 9.74725341796875 658.7931518554688 7.578338623046875 656.6017456054688 5.892578125 C 655.4408569335938 4.99957275390625 654.0755615234375 4.294158935546875 652.5440063476563 3.79583740234375 C 650.9210205078125 3.26776123046875 649.1902465820313 3 647.4000244140625 3 L 15.5999755859375 3 M 15.5999755859375 0 L 647.4000244140625 0 C 656.0155639648438 0 663 5.372589111328125 663 12 L 663 371 C 663 377.6274108886719 656.0155639648438 383 647.4000244140625 383 L 15.5999755859375 383 C 6.98431396484375 383 0 377.6274108886719 0 371 L 0 12 C 0 5.372589111328125 6.98431396484375 0 15.5999755859375 0 Z" stroke="none" fill="#4ed2b8"/>
    </g>
    <path id="Path_28" data-name="Path 28" d="M797.569,607.487l-1.953-1.474c-6.944-5.339-11.523-8.8-11.94-13.57a6.814,6.814,0,0,1,6.261-7.507,7.412,7.412,0,0,1,5.847,2.146,7.411,7.411,0,0,1,5.386-3.128,6.814,6.814,0,0,1,7.469,6.306c.417,4.771-3.491,8.973-9.4,15.437Z" transform="translate(95.651 -54.061)" fill="#ff6584"/>
    <path id="Path_31" data-name="Path 31" d="M758.443,457.021l-55.924,26.468,49.5-37.01a279.288,279.288,0,0,0-27.024-35.561L482.454,471.2l219.078-83.57a279.25,279.25,0,0,0-31.813-24.249L300.152,422.909a276.967,276.967,0,0,0-60.658,172.846h556.3A276.819,276.819,0,0,0,758.443,457.02Z" transform="translate(124.994 -42.168)" fill="#f2f2f2"/>
    <path id="Path_32" data-name="Path 32" d="M643.142,343.619a278.342,278.342,0,0,0-335.588,72.136C394.924,396.612,547.043,363.473,643.142,343.619Z" transform="translate(121.324 -39.59)" fill="#f2f2f2"/>
    <path id="Path_29" data-name="Path 29" d="M822.441,581.749l-1.07-2.2c-3.763-7.91-6.272-13.071-4.477-17.512a6.814,6.814,0,0,1,8.987-3.846,7.412,7.412,0,0,1,4.236,4.567,7.412,7.412,0,0,1,6.219-.342,6.814,6.814,0,0,1,3.792,9.01c-1.795,4.441-7.185,6.41-15.387,9.484Z" transform="translate(93.889 -52.645)" fill="#ff6584"/>
    <path id="Path_33" data-name="Path 33" d="M602.826,347.824c-9.52,28.188-24.119,53.871-53.871,53.871s-52.194-24.166-53.871-53.871c-2.142-37.957,23.432-54.028,53.871-53.871C584.914,294.139,614.125,314.372,602.826,347.824Z" transform="translate(111.218 -38.424)" fill="#2f2e41"/>
    <rect id="Rectangle_15" data-name="Rectangle 15" width="88.115" height="128.413" transform="translate(615.728 302.234)" fill="#2f2e41"/>
    <path id="Path_34" data-name="Path 34" d="M537.489,420.256s2.818,40.4-3.758,46.973,58.247,12.213,57.307,4.7-13.153-56.368-9.395-66.7S537.489,420.256,537.489,420.256Z" transform="translate(109.152 -44.291)" fill="#ffb8b8"/>
    <path id="Path_35" data-name="Path 35" d="M537.489,420.256s2.818,40.4-3.758,46.973,58.247,12.213,57.307,4.7-13.153-56.368-9.395-66.7S537.489,420.256,537.489,420.256Z" transform="translate(109.152 -44.291)" opacity="0.1"/>
    <path id="Path_36" data-name="Path 36" d="M466.961,527.277,433.205,641.421l-1.353,4.6h-56.8c22.6-69.962,78.477-173.131,78.477-173.131l8.723-1.977Z" transform="translate(117.684 -47.967)" fill="#1abc9c"/>
    <path id="Path_37" data-name="Path 37" d="M466.961,527.277,433.205,641.421l-1.353,4.6h-56.8c22.6-69.962,78.477-173.131,78.477-173.131l8.723-1.977Z" transform="translate(117.684 -47.967)" opacity="0.1"/>
    <ellipse id="Ellipse_1" data-name="Ellipse 1" cx="42.276" cy="42.276" rx="42.276" ry="42.276" transform="translate(615.64 305.506)" fill="#ffb8b8"/>
    <path id="Path_38" data-name="Path 38" d="M593.163,462.271s-15.031,14.092-31.942,11.273-24.009-23.382-24.009-23.382l-16.387,12.109s-4.7,33.82,16.91,37.578,52.61,4.7,59.186,0S593.163,462.271,593.163,462.271Z" transform="translate(109.846 -46.848)" fill="#3f3d56"/>
    <path id="Path_39" data-name="Path 39" d="M640.27,512.314l-2.7,8.761L599.513,645.162H435.71a38.391,38.391,0,0,0,.766-4.6c2.119-17.663.87-62.223.87-65.289,0-3.765,15.96-96.764,19.735-103.349a6.111,6.111,0,0,1,2.242-1.873c4.38-2.517,14.068-5.336,24.513-7.824.009-.009.009-.009.019-.009,5.837-1.419,11.93-2.725,17.455-3.832h.009c5.421-1.088,10.284-1.977,13.841-2.564a56.664,56.664,0,0,1,5.8-.8c.87,0,1.5,1.031,1.93,2.611,1.429,5.147.88,16.168.88,16.168a28.546,28.546,0,0,0,4.219,3.955,53.594,53.594,0,0,0,11.788,7.029,69.913,69.913,0,0,0,11.183,3.813h.009a81.713,81.713,0,0,0,12.252,2.129,37.808,37.808,0,0,0,10.123-.2h.019c9.962-1.646,13.614-7.833,15.317-12.772.3-.9.539-1.76.747-2.545,0-.009.009-.028.009-.038.624-2.412.889-4.106,1.552-4.078H591c1.712.161,23.311,18.675,37.342,30.833,6.66,5.762,11.608,10.113,11.911,10.378Z" transform="translate(114.413 -47.11)" fill="#1abc9c"/>
    <path id="Path_40" data-name="Path 40" d="M646.031,524.154,607.97,648.241H592.54a10.154,10.154,0,0,0,1.693-6.944c-.492-3.463,10.227-38.742,20.549-71.571,9.385-29.83,18.439-57.606,18.439-57.606l8.921,4.219S643.741,519.357,646.031,524.154Z" transform="translate(105.956 -50.189)" opacity="0.1"/>
    <path id="Path_41" data-name="Path 41" d="M673.494,636.238c-1.854.464-1.656,5.97-1.76,11.656h-72.9a10.746,10.746,0,0,0,2.327-7.89c-.483-3.321,6.708-37.559,13.964-70.624,5.7-26.149,11.457-51.57,13.453-60.416.492-2.138.757-3.292.757-3.292l.861.407.019.009,18.836,8.95.019.009s29.12,55.44,19.735,68.59c-9.4,13.15-9.4,13.15-5.648,19.735C666.909,609.937,677.241,635.3,673.494,636.238Z" transform="translate(105.617 -49.841)" fill="#1abc9c"/>
    <ellipse id="Ellipse_2" data-name="Ellipse 2" cx="21.265" cy="21.265" rx="21.265" ry="21.265" transform="translate(638.908 224.342)" fill="#2f2e41"/>
    <path id="Path_42" data-name="Path 42" d="M524.819,270.265a21.265,21.265,0,0,1,19.137-21.158c-.7-.07-1.408-.107-2.125-.107a21.265,21.265,0,1,0,0,42.53c.718,0,1.427-.038,2.126-.107a21.266,21.266,0,0,1-19.138-21.157Z" transform="translate(109.837 -36)" fill="#2f2e41"/>
    <path id="Path_43" data-name="Path 43" d="M532.618,334.943s-.444-2.472-17.81,4.04-27.776,54.57-19.093,82.789c3.5,11.372.653,19.572-3.993,25.309-17.434,21.529-10.571,53.864,14.823,64.935q1.075.469,2.194.927l10.854,6.512s-13.836-18.205-6.912-41.493a119.4,119.4,0,0,0,2.155-61.125c-.794-3.41-1.7-6.926-2.722-10.513-8.683-30.39-4.46-26.881,25.93-57.271,0,0,17.366,13.024,32.561,19.537s28.219,13.024,17.366,34.732-36.9,41.244-19.537,69.463S587.971,490.151,585.8,501h0l-2.171,10.854,13.024-13.024L587.971,516.2s28.219,0,36.9-21.707l4.341,4.341s17.366-30.39-15.2-58.61c0,0-10.854-6.512,4.341-28.219s3.525-68.378-16.012-77.061S532.618,334.943,532.618,334.943Z" transform="translate(111.914 -40.427)" fill="#2f2e41"/>
    <path id="Path_44" data-name="Path 44" d="M411.085,296.659l-36.169,62.647h8.455v8.455l41.107-71.1Z" transform="translate(246.831 134.561)" fill="#3f3d56"/>
    <path id="Path_46" data-name="Path 46" d="M797.569,607.487l-1.953-1.474c-6.944-5.339-11.523-8.8-11.94-13.57a6.814,6.814,0,0,1,6.261-7.507,7.412,7.412,0,0,1,5.847,2.146,7.411,7.411,0,0,1,5.386-3.128,6.814,6.814,0,0,1,7.469,6.306c.417,4.771-3.491,8.973-9.4,15.437Z" transform="translate(95.65 -54.061)" fill="#ff6584"/>
    <path id="Path_48" data-name="Path 48" d="M758.443,457.021l-55.924,26.468,49.5-37.01a279.288,279.288,0,0,0-27.024-35.561L482.454,471.2l219.078-83.57a279.25,279.25,0,0,0-31.813-24.249L300.152,422.909a276.967,276.967,0,0,0-60.658,172.846h556.3A276.819,276.819,0,0,0,758.443,457.02Z" transform="translate(124.994 -42.168)" fill="#f2f2f2"/>
    <path id="Path_49" data-name="Path 49" d="M643.142,343.619a278.342,278.342,0,0,0-335.588,72.136C394.924,396.612,547.043,363.473,643.142,343.619Z" transform="translate(121.324 -39.59)" fill="#f2f2f2"/>
    <path id="Path_50" data-name="Path 50" d="M822.441,581.749l-1.07-2.2c-3.763-7.91-6.272-13.071-4.477-17.512a6.814,6.814,0,0,1,8.987-3.846,7.412,7.412,0,0,1,4.236,4.567,7.412,7.412,0,0,1,6.219-.342,6.814,6.814,0,0,1,3.792,9.01c-1.795,4.441-7.185,6.41-15.387,9.484Z" transform="translate(93.889 -52.645)" fill="#ff6584"/>
    <path id="Path_51" data-name="Path 51" d="M602.826,347.824c-9.52,28.188-24.119,53.871-53.871,53.871s-52.194-24.166-53.871-53.871c-2.142-37.957,23.432-54.028,53.871-53.871C584.914,294.139,614.125,314.372,602.826,347.824Z" transform="translate(111.218 -38.424)" fill="#2f2e41"/>
    <rect id="Rectangle_18" data-name="Rectangle 18" width="88.115" height="128.413" transform="translate(615.728 302.234)" fill="#2f2e41"/>
    <path id="Path_52" data-name="Path 52" d="M537.489,420.256s2.818,40.4-3.758,46.973,58.247,12.213,57.307,4.7-13.153-56.368-9.395-66.7S537.489,420.256,537.489,420.256Z" transform="translate(109.152 -44.291)" fill="#ffb8b8"/>
    <path id="Path_53" data-name="Path 53" d="M537.489,420.256s2.818,40.4-3.758,46.973,58.247,12.213,57.307,4.7-13.153-56.368-9.395-66.7S537.489,420.256,537.489,420.256Z" transform="translate(109.152 -44.291)" opacity="0.1"/>
    <path id="Path_54" data-name="Path 54" d="M466.961,527.277,433.205,641.421l-1.353,4.6h-56.8c22.6-69.962,78.477-173.131,78.477-173.131l8.723-1.977Z" transform="translate(117.684 -47.967)" fill="#1abc9c"/>
    <path id="Path_55" data-name="Path 55" d="M466.961,527.277,433.205,641.421l-1.353,4.6h-56.8c22.6-69.962,78.477-173.131,78.477-173.131l8.723-1.977Z" transform="translate(117.684 -47.967)" opacity="0.1"/>
    <ellipse id="Ellipse_3" data-name="Ellipse 3" cx="42.276" cy="42.276" rx="42.276" ry="42.276" transform="translate(615.64 305.506)" fill="#ffb8b8"/>
    <path id="Path_56" data-name="Path 56" d="M593.163,462.271s-15.031,14.092-31.942,11.273-24.009-23.382-24.009-23.382l-16.387,12.109s-4.7,33.82,16.91,37.578,52.61,4.7,59.186,0S593.163,462.271,593.163,462.271Z" transform="translate(109.846 -46.848)" fill="#3f3d56"/>
    <path id="Path_57" data-name="Path 57" d="M640.27,512.314l-2.7,8.761L599.513,645.162H435.71a38.391,38.391,0,0,0,.766-4.6c2.119-17.663.87-62.223.87-65.289,0-3.765,15.96-96.764,19.735-103.349a6.111,6.111,0,0,1,2.242-1.873c4.38-2.517,14.068-5.336,24.513-7.824.009-.009.009-.009.019-.009,5.837-1.419,11.93-2.725,17.455-3.832h.009c5.421-1.088,10.284-1.977,13.841-2.564a56.664,56.664,0,0,1,5.8-.8c.87,0,1.5,1.031,1.93,2.611,1.429,5.147.88,16.168.88,16.168a28.546,28.546,0,0,0,4.219,3.955,53.594,53.594,0,0,0,11.788,7.029,69.913,69.913,0,0,0,11.183,3.813h.009a81.713,81.713,0,0,0,12.252,2.129,37.808,37.808,0,0,0,10.123-.2h.019c9.962-1.646,13.614-7.833,15.317-12.772.3-.9.539-1.76.747-2.545,0-.009.009-.028.009-.038.624-2.412.889-4.106,1.552-4.078H591c1.712.161,23.311,18.675,37.342,30.833,6.66,5.762,11.608,10.113,11.911,10.378Z" transform="translate(114.413 -47.11)" fill="#1abc9c"/>
    <path id="Path_58" data-name="Path 58" d="M646.031,524.154,607.97,648.241H592.54a10.154,10.154,0,0,0,1.693-6.944c-.492-3.463,10.227-38.742,20.549-71.571,9.385-29.83,18.439-57.606,18.439-57.606l8.921,4.219S643.741,519.357,646.031,524.154Z" transform="translate(105.956 -50.189)" opacity="0.1"/>
    <path id="Path_59" data-name="Path 59" d="M673.494,636.238c-1.854.464-1.656,5.97-1.76,11.656h-72.9a10.746,10.746,0,0,0,2.327-7.89c-.483-3.321,6.708-37.559,13.964-70.624,5.7-26.149,11.457-51.57,13.453-60.416.492-2.138.757-3.292.757-3.292l.861.407.019.009,18.836,8.95.019.009s29.12,55.44,19.735,68.59c-9.4,13.15-9.4,13.15-5.648,19.735C666.909,609.937,677.241,635.3,673.494,636.238Z" transform="translate(105.617 -49.841)" fill="#1abc9c"/>
    <ellipse id="Ellipse_4" data-name="Ellipse 4" cx="21.265" cy="21.265" rx="21.265" ry="21.265" transform="translate(638.908 224.342)" fill="#2f2e41"/>
    <path id="Path_60" data-name="Path 60" d="M524.819,270.265a21.265,21.265,0,0,1,19.137-21.158c-.7-.07-1.408-.107-2.125-.107a21.265,21.265,0,1,0,0,42.53c.718,0,1.427-.038,2.126-.107a21.266,21.266,0,0,1-19.138-21.157Z" transform="translate(109.837 -36)" fill="#2f2e41"/>
    <path id="Path_61" data-name="Path 61" d="M532.618,334.943s-.444-2.472-17.81,4.04-27.776,54.57-19.093,82.789c3.5,11.372.653,19.572-3.993,25.309-17.434,21.529-10.571,53.864,14.823,64.935q1.075.469,2.194.927l10.854,6.512s-13.836-18.205-6.912-41.493a119.4,119.4,0,0,0,2.155-61.125c-.794-3.41-1.7-6.926-2.722-10.513-8.683-30.39-4.46-26.881,25.93-57.271,0,0,17.366,13.024,32.561,19.537s28.219,13.024,17.366,34.732-36.9,41.244-19.537,69.463S587.971,490.151,585.8,501h0l-2.171,10.854,13.024-13.024L587.971,516.2s28.219,0,36.9-21.707l4.341,4.341s17.366-30.39-15.2-58.61c0,0-10.854-6.512,4.341-28.219s3.525-68.378-16.012-77.061S532.618,334.943,532.618,334.943Z" transform="translate(111.914 -40.427)" fill="#2f2e41"/>
    <path id="Path_62" data-name="Path 62" d="M411.085,296.659l-36.169,62.647h8.455v8.455l41.107-71.1Z" transform="translate(246.831 134.561)" fill="#3f3d56"/>
    <path id="Path_64" data-name="Path 64" d="M797.569,607.487l-1.953-1.474c-6.944-5.339-11.523-8.8-11.94-13.57a6.814,6.814,0,0,1,6.261-7.507,7.412,7.412,0,0,1,5.847,2.146,7.411,7.411,0,0,1,5.386-3.128,6.814,6.814,0,0,1,7.469,6.306c.417,4.771-3.491,8.973-9.4,15.437Z" transform="translate(95.65 -54.061)" fill="#ff6584"/>
    <path id="Path_66" data-name="Path 66" d="M758.443,457.021l-55.924,26.468,49.5-37.01a279.288,279.288,0,0,0-27.024-35.561L482.454,471.2l219.078-83.57a279.25,279.25,0,0,0-31.813-24.249L300.152,422.909a276.967,276.967,0,0,0-60.658,172.846h556.3A276.819,276.819,0,0,0,758.443,457.02Z" transform="translate(124.994 -42.168)" fill="#f2f2f2"/>
    <path id="Path_67" data-name="Path 67" d="M643.142,343.619a278.342,278.342,0,0,0-335.588,72.136C394.924,396.612,547.043,363.473,643.142,343.619Z" transform="translate(121.324 -39.59)" fill="#f2f2f2"/>
    <path id="Path_68" data-name="Path 68" d="M822.441,581.749l-1.07-2.2c-3.763-7.91-6.272-13.071-4.477-17.512a6.814,6.814,0,0,1,8.987-3.846,7.412,7.412,0,0,1,4.236,4.567,7.412,7.412,0,0,1,6.219-.342,6.814,6.814,0,0,1,3.792,9.01c-1.795,4.441-7.185,6.41-15.387,9.484Z" transform="translate(93.889 -52.645)" fill="#ff6584"/>
    <path id="Path_69" data-name="Path 69" d="M602.826,347.824c-9.52,28.188-24.119,53.871-53.871,53.871s-52.194-24.166-53.871-53.871c-2.142-37.957,23.432-54.028,53.871-53.871C584.914,294.139,614.125,314.372,602.826,347.824Z" transform="translate(111.218 -38.424)" fill="#2f2e41"/>
    <rect id="Rectangle_19" data-name="Rectangle 19" width="88.115" height="128.413" transform="translate(615.728 302.234)" fill="#2f2e41"/>
    <path id="Path_70" data-name="Path 70" d="M537.489,420.256s2.818,40.4-3.758,46.973,58.247,12.213,57.307,4.7-13.153-56.368-9.395-66.7S537.489,420.256,537.489,420.256Z" transform="translate(109.152 -44.291)" fill="#ffb8b8"/>
    <path id="Path_71" data-name="Path 71" d="M537.489,420.256s2.818,40.4-3.758,46.973,58.247,12.213,57.307,4.7-13.153-56.368-9.395-66.7S537.489,420.256,537.489,420.256Z" transform="translate(109.152 -44.291)" opacity="0.1"/>
    <path id="Path_72" data-name="Path 72" d="M466.961,527.277,433.205,641.421l-1.353,4.6h-56.8c22.6-69.962,78.477-173.131,78.477-173.131l8.723-1.977Z" transform="translate(117.684 -47.967)" fill="#1abc9c"/>
    <path id="Path_73" data-name="Path 73" d="M466.961,527.277,433.205,641.421l-1.353,4.6h-56.8c22.6-69.962,78.477-173.131,78.477-173.131l8.723-1.977Z" transform="translate(117.684 -47.967)" opacity="0.1"/>
    <ellipse id="Ellipse_5" data-name="Ellipse 5" cx="42.276" cy="42.276" rx="42.276" ry="42.276" transform="translate(615.64 305.506)" fill="#ffb8b8"/>
    <path id="Path_74" data-name="Path 74" d="M593.163,462.271s-15.031,14.092-31.942,11.273-24.009-23.382-24.009-23.382l-16.387,12.109s-4.7,33.82,16.91,37.578,52.61,4.7,59.186,0S593.163,462.271,593.163,462.271Z" transform="translate(109.846 -46.848)" fill="#3f3d56"/>
    <path id="Path_75" data-name="Path 75" d="M640.27,512.314l-2.7,8.761L599.513,645.162H435.71a38.391,38.391,0,0,0,.766-4.6c2.119-17.663.87-62.223.87-65.289,0-3.765,15.96-96.764,19.735-103.349a6.111,6.111,0,0,1,2.242-1.873c4.38-2.517,14.068-5.336,24.513-7.824.009-.009.009-.009.019-.009,5.837-1.419,11.93-2.725,17.455-3.832h.009c5.421-1.088,10.284-1.977,13.841-2.564a56.664,56.664,0,0,1,5.8-.8c.87,0,1.5,1.031,1.93,2.611,1.429,5.147.88,16.168.88,16.168a28.546,28.546,0,0,0,4.219,3.955,53.594,53.594,0,0,0,11.788,7.029,69.913,69.913,0,0,0,11.183,3.813h.009a81.713,81.713,0,0,0,12.252,2.129,37.808,37.808,0,0,0,10.123-.2h.019c9.962-1.646,13.614-7.833,15.317-12.772.3-.9.539-1.76.747-2.545,0-.009.009-.028.009-.038.624-2.412.889-4.106,1.552-4.078H591c1.712.161,23.311,18.675,37.342,30.833,6.66,5.762,11.608,10.113,11.911,10.378Z" transform="translate(114.413 -47.11)" fill="#1abc9c"/>
    <path id="Path_76" data-name="Path 76" d="M646.031,524.154,607.97,648.241H592.54a10.154,10.154,0,0,0,1.693-6.944c-.492-3.463,10.227-38.742,20.549-71.571,9.385-29.83,18.439-57.606,18.439-57.606l8.921,4.219S643.741,519.357,646.031,524.154Z" transform="translate(105.956 -50.189)" opacity="0.1"/>
    <path id="Path_77" data-name="Path 77" d="M673.494,636.238c-1.854.464-1.656,5.97-1.76,11.656h-72.9a10.746,10.746,0,0,0,2.327-7.89c-.483-3.321,6.708-37.559,13.964-70.624,5.7-26.149,11.457-51.57,13.453-60.416.492-2.138.757-3.292.757-3.292l.861.407.019.009,18.836,8.95.019.009s29.12,55.44,19.735,68.59c-9.4,13.15-9.4,13.15-5.648,19.735C666.909,609.937,677.241,635.3,673.494,636.238Z" transform="translate(105.617 -49.841)" fill="#1abc9c"/>
    <ellipse id="Ellipse_6" data-name="Ellipse 6" cx="21.265" cy="21.265" rx="21.265" ry="21.265" transform="translate(638.908 224.342)" fill="#2f2e41"/>
    <path id="Path_78" data-name="Path 78" d="M524.819,270.265a21.265,21.265,0,0,1,19.137-21.158c-.7-.07-1.408-.107-2.125-.107a21.265,21.265,0,1,0,0,42.53c.718,0,1.427-.038,2.126-.107a21.266,21.266,0,0,1-19.138-21.157Z" transform="translate(109.837 -36)" fill="#2f2e41"/>
    <path id="Path_79" data-name="Path 79" d="M532.618,334.943s-.444-2.472-17.81,4.04-27.776,54.57-19.093,82.789c3.5,11.372.653,19.572-3.993,25.309-17.434,21.529-10.571,53.864,14.823,64.935q1.075.469,2.194.927l10.854,6.512s-13.836-18.205-6.912-41.493a119.4,119.4,0,0,0,2.155-61.125c-.794-3.41-1.7-6.926-2.722-10.513-8.683-30.39-4.46-26.881,25.93-57.271,0,0,17.366,13.024,32.561,19.537s28.219,13.024,17.366,34.732-36.9,41.244-19.537,69.463S587.971,490.151,585.8,501h0l-2.171,10.854,13.024-13.024L587.971,516.2s28.219,0,36.9-21.707l4.341,4.341s17.366-30.39-15.2-58.61c0,0-10.854-6.512,4.341-28.219s3.525-68.378-16.012-77.061S532.618,334.943,532.618,334.943Z" transform="translate(111.914 -40.427)" fill="#2f2e41"/>
    <path id="Path_80" data-name="Path 80" d="M411.085,296.659l-36.169,62.647h8.455v8.455l41.107-71.1Z" transform="translate(246.831 134.561)" fill="#3f3d56"/>
    <path id="Path_82" data-name="Path 82" d="M797.569,607.487l-1.953-1.474c-6.944-5.339-11.523-8.8-11.94-13.57a6.814,6.814,0,0,1,6.261-7.507,7.412,7.412,0,0,1,5.847,2.146,7.411,7.411,0,0,1,5.386-3.128,6.814,6.814,0,0,1,7.469,6.306c.417,4.771-3.491,8.973-9.4,15.437Z" transform="translate(95.65 -54.061)" fill="#ff6584"/>
    <path id="Path_84" data-name="Path 84" d="M758.443,457.021l-55.924,26.468,49.5-37.01a279.288,279.288,0,0,0-27.024-35.561L482.454,471.2l219.078-83.57a279.25,279.25,0,0,0-31.813-24.249L300.152,422.909a276.967,276.967,0,0,0-60.658,172.846h556.3A276.819,276.819,0,0,0,758.443,457.02Z" transform="translate(124.994 -42.168)" fill="#f2f2f2"/>
    <path id="Path_85" data-name="Path 85" d="M643.142,343.619a278.342,278.342,0,0,0-335.588,72.136C394.924,396.612,547.043,363.473,643.142,343.619Z" transform="translate(121.324 -39.59)" fill="#f2f2f2"/>
    <path id="Path_86" data-name="Path 86" d="M822.441,581.749l-1.07-2.2c-3.763-7.91-6.272-13.071-4.477-17.512a6.814,6.814,0,0,1,8.987-3.846,7.412,7.412,0,0,1,4.236,4.567,7.412,7.412,0,0,1,6.219-.342,6.814,6.814,0,0,1,3.792,9.01c-1.795,4.441-7.185,6.41-15.387,9.484Z" transform="translate(93.889 -52.645)" fill="#ff6584"/>
    <path id="Path_87" data-name="Path 87" d="M602.826,347.824c-9.52,28.188-24.119,53.871-53.871,53.871s-52.194-24.166-53.871-53.871c-2.142-37.957,23.432-54.028,53.871-53.871C584.914,294.139,614.125,314.372,602.826,347.824Z" transform="translate(111.218 -38.424)" fill="#2f2e41"/>
    <rect id="Rectangle_20" data-name="Rectangle 20" width="88.115" height="128.413" transform="translate(615.728 302.234)" fill="#2f2e41"/>
    <path id="Path_88" data-name="Path 88" d="M537.489,420.256s2.818,40.4-3.758,46.973,58.247,12.213,57.307,4.7-13.153-56.368-9.395-66.7S537.489,420.256,537.489,420.256Z" transform="translate(109.152 -44.291)" fill="#ffb8b8"/>
    <path id="Path_89" data-name="Path 89" d="M537.489,420.256s2.818,40.4-3.758,46.973,58.247,12.213,57.307,4.7-13.153-56.368-9.395-66.7S537.489,420.256,537.489,420.256Z" transform="translate(109.152 -44.291)" opacity="0.1"/>
    <path id="Path_90" data-name="Path 90" d="M466.961,527.277,433.205,641.421l-1.353,4.6h-56.8c22.6-69.962,78.477-173.131,78.477-173.131l8.723-1.977Z" transform="translate(117.684 -47.967)" fill="#1abc9c"/>
    <path id="Path_91" data-name="Path 91" d="M466.961,527.277,433.205,641.421l-1.353,4.6h-56.8c22.6-69.962,78.477-173.131,78.477-173.131l8.723-1.977Z" transform="translate(117.684 -47.967)" opacity="0.1"/>
    <ellipse id="Ellipse_7" data-name="Ellipse 7" cx="42.276" cy="42.276" rx="42.276" ry="42.276" transform="translate(615.64 305.506)" fill="#ffb8b8"/>
    <path id="Path_92" data-name="Path 92" d="M593.163,462.271s-15.031,14.092-31.942,11.273-24.009-23.382-24.009-23.382l-16.387,12.109s-4.7,33.82,16.91,37.578,52.61,4.7,59.186,0S593.163,462.271,593.163,462.271Z" transform="translate(109.846 -46.848)" fill="#3f3d56"/>
    <path id="Path_93" data-name="Path 93" d="M640.27,512.314l-2.7,8.761L599.513,645.162H435.71a38.391,38.391,0,0,0,.766-4.6c2.119-17.663.87-62.223.87-65.289,0-3.765,15.96-96.764,19.735-103.349a6.111,6.111,0,0,1,2.242-1.873c4.38-2.517,14.068-5.336,24.513-7.824.009-.009.009-.009.019-.009,5.837-1.419,11.93-2.725,17.455-3.832h.009c5.421-1.088,10.284-1.977,13.841-2.564a56.664,56.664,0,0,1,5.8-.8c.87,0,1.5,1.031,1.93,2.611,1.429,5.147.88,16.168.88,16.168a28.546,28.546,0,0,0,4.219,3.955,53.594,53.594,0,0,0,11.788,7.029,69.913,69.913,0,0,0,11.183,3.813h.009a81.713,81.713,0,0,0,12.252,2.129,37.808,37.808,0,0,0,10.123-.2h.019c9.962-1.646,13.614-7.833,15.317-12.772.3-.9.539-1.76.747-2.545,0-.009.009-.028.009-.038.624-2.412.889-4.106,1.552-4.078H591c1.712.161,23.311,18.675,37.342,30.833,6.66,5.762,11.608,10.113,11.911,10.378Z" transform="translate(114.413 -47.11)" fill="#1abc9c"/>
    <path id="Path_94" data-name="Path 94" d="M646.031,524.154,607.97,648.241H592.54a10.154,10.154,0,0,0,1.693-6.944c-.492-3.463,10.227-38.742,20.549-71.571,9.385-29.83,18.439-57.606,18.439-57.606l8.921,4.219S643.741,519.357,646.031,524.154Z" transform="translate(105.956 -50.189)" opacity="0.1"/>
    <path id="Path_95" data-name="Path 95" d="M673.494,636.238c-1.854.464-1.656,5.97-1.76,11.656h-72.9a10.746,10.746,0,0,0,2.327-7.89c-.483-3.321,6.708-37.559,13.964-70.624,5.7-26.149,11.457-51.57,13.453-60.416.492-2.138.757-3.292.757-3.292l.861.407.019.009,18.836,8.95.019.009s29.12,55.44,19.735,68.59c-9.4,13.15-9.4,13.15-5.648,19.735C666.909,609.937,677.241,635.3,673.494,636.238Z" transform="translate(105.617 -49.841)" fill="#1abc9c"/>
    <ellipse id="Ellipse_8" data-name="Ellipse 8" cx="21.265" cy="21.265" rx="21.265" ry="21.265" transform="translate(638.908 224.342)" fill="#2f2e41"/>
    <path id="Path_96" data-name="Path 96" d="M524.819,270.265a21.265,21.265,0,0,1,19.137-21.158c-.7-.07-1.408-.107-2.125-.107a21.265,21.265,0,1,0,0,42.53c.718,0,1.427-.038,2.126-.107a21.266,21.266,0,0,1-19.138-21.157Z" transform="translate(109.837 -36)" fill="#2f2e41"/>
    <path id="Path_97" data-name="Path 97" d="M532.618,334.943s-.444-2.472-17.81,4.04-27.776,54.57-19.093,82.789c3.5,11.372.653,19.572-3.993,25.309-17.434,21.529-10.571,53.864,14.823,64.935q1.075.469,2.194.927l10.854,6.512s-13.836-18.205-6.912-41.493a119.4,119.4,0,0,0,2.155-61.125c-.794-3.41-1.7-6.926-2.722-10.513-8.683-30.39-4.46-26.881,25.93-57.271,0,0,17.366,13.024,32.561,19.537s28.219,13.024,17.366,34.732-36.9,41.244-19.537,69.463S587.971,490.151,585.8,501h0l-2.171,10.854,13.024-13.024L587.971,516.2s28.219,0,36.9-21.707l4.341,4.341s17.366-30.39-15.2-58.61c0,0-10.854-6.512,4.341-28.219s3.525-68.378-16.012-77.061S532.618,334.943,532.618,334.943Z" transform="translate(111.914 -40.427)" fill="#2f2e41"/>
    <path id="Path_98" data-name="Path 98" d="M411.085,296.659l-36.169,62.647h8.455v8.455l41.107-71.1Z" transform="translate(246.831 134.561)" fill="#3f3d56"/>
    <path id="Path_100" data-name="Path 100" d="M797.569,607.487l-1.953-1.474c-6.944-5.339-11.523-8.8-11.94-13.57a6.814,6.814,0,0,1,6.261-7.507,7.412,7.412,0,0,1,5.847,2.146,7.411,7.411,0,0,1,5.386-3.128,6.814,6.814,0,0,1,7.469,6.306c.417,4.771-3.491,8.973-9.4,15.437Z" transform="translate(95.65 -54.061)" fill="#ff6584"/>
    <path id="Path_102" data-name="Path 102" d="M758.443,457.021l-55.924,26.468,49.5-37.01a279.288,279.288,0,0,0-27.024-35.561L482.454,471.2l219.078-83.57a279.25,279.25,0,0,0-31.813-24.249L300.152,422.909a276.967,276.967,0,0,0-60.658,172.846h556.3A276.819,276.819,0,0,0,758.443,457.02Z" transform="translate(124.994 -42.168)" fill="#f2f2f2"/>
    <path id="Path_103" data-name="Path 103" d="M643.142,343.619a278.342,278.342,0,0,0-335.588,72.136C394.924,396.612,547.043,363.473,643.142,343.619Z" transform="translate(121.324 -39.59)" fill="#f2f2f2"/>
    <path id="Path_104" data-name="Path 104" d="M822.441,581.749l-1.07-2.2c-3.763-7.91-6.272-13.071-4.477-17.512a6.814,6.814,0,0,1,8.987-3.846,7.412,7.412,0,0,1,4.236,4.567,7.412,7.412,0,0,1,6.219-.342,6.814,6.814,0,0,1,3.792,9.01c-1.795,4.441-7.185,6.41-15.387,9.484Z" transform="translate(93.889 -52.645)" fill="#ff6584"/>
    <path id="Path_105" data-name="Path 105" d="M602.826,347.824c-9.52,28.188-24.119,53.871-53.871,53.871s-52.194-24.166-53.871-53.871c-2.142-37.957,23.432-54.028,53.871-53.871C584.914,294.139,614.125,314.372,602.826,347.824Z" transform="translate(111.218 -38.424)" fill="#2f2e41"/>
    <rect id="Rectangle_21" data-name="Rectangle 21" width="88.115" height="128.413" transform="translate(615.728 302.234)" fill="#2f2e41"/>
    <path id="Path_106" data-name="Path 106" d="M537.489,420.256s2.818,40.4-3.758,46.973,58.247,12.213,57.307,4.7-13.153-56.368-9.395-66.7S537.489,420.256,537.489,420.256Z" transform="translate(109.152 -44.291)" fill="#ffb8b8"/>
    <path id="Path_107" data-name="Path 107" d="M537.489,420.256s2.818,40.4-3.758,46.973,58.247,12.213,57.307,4.7-13.153-56.368-9.395-66.7S537.489,420.256,537.489,420.256Z" transform="translate(109.152 -44.291)" opacity="0.1"/>
    <path id="Path_108" data-name="Path 108" d="M466.961,527.277,433.205,641.421l-1.353,4.6h-56.8c22.6-69.962,78.477-173.131,78.477-173.131l8.723-1.977Z" transform="translate(117.684 -47.967)" fill="#1abc9c"/>
    <path id="Path_109" data-name="Path 109" d="M466.961,527.277,433.205,641.421l-1.353,4.6h-56.8c22.6-69.962,78.477-173.131,78.477-173.131l8.723-1.977Z" transform="translate(117.684 -47.967)" opacity="0.1"/>
    <ellipse id="Ellipse_9" data-name="Ellipse 9" cx="42.276" cy="42.276" rx="42.276" ry="42.276" transform="translate(615.64 305.506)" fill="#ffb8b8"/>
    <path id="Path_110" data-name="Path 110" d="M593.163,462.271s-15.031,14.092-31.942,11.273-24.009-23.382-24.009-23.382l-16.387,12.109s-4.7,33.82,16.91,37.578,52.61,4.7,59.186,0S593.163,462.271,593.163,462.271Z" transform="translate(109.846 -46.848)" fill="#3f3d56"/>
    <path id="Path_111" data-name="Path 111" d="M640.27,512.314l-2.7,8.761L599.513,645.162H435.71a38.391,38.391,0,0,0,.766-4.6c2.119-17.663.87-62.223.87-65.289,0-3.765,15.96-96.764,19.735-103.349a6.111,6.111,0,0,1,2.242-1.873c4.38-2.517,14.068-5.336,24.513-7.824.009-.009.009-.009.019-.009,5.837-1.419,11.93-2.725,17.455-3.832h.009c5.421-1.088,10.284-1.977,13.841-2.564a56.664,56.664,0,0,1,5.8-.8c.87,0,1.5,1.031,1.93,2.611,1.429,5.147.88,16.168.88,16.168a28.546,28.546,0,0,0,4.219,3.955,53.594,53.594,0,0,0,11.788,7.029,69.913,69.913,0,0,0,11.183,3.813h.009a81.713,81.713,0,0,0,12.252,2.129,37.808,37.808,0,0,0,10.123-.2h.019c9.962-1.646,13.614-7.833,15.317-12.772.3-.9.539-1.76.747-2.545,0-.009.009-.028.009-.038.624-2.412.889-4.106,1.552-4.078H591c1.712.161,23.311,18.675,37.342,30.833,6.66,5.762,11.608,10.113,11.911,10.378Z" transform="translate(114.413 -47.11)" fill="#1abc9c"/>
    <path id="Path_112" data-name="Path 112" d="M646.031,524.154,607.97,648.241H592.54a10.154,10.154,0,0,0,1.693-6.944c-.492-3.463,10.227-38.742,20.549-71.571,9.385-29.83,18.439-57.606,18.439-57.606l8.921,4.219S643.741,519.357,646.031,524.154Z" transform="translate(105.956 -50.189)" opacity="0.1"/>
    <path id="Path_113" data-name="Path 113" d="M673.494,636.238c-1.854.464-1.656,5.97-1.76,11.656h-72.9a10.746,10.746,0,0,0,2.327-7.89c-.483-3.321,6.708-37.559,13.964-70.624,5.7-26.149,11.457-51.57,13.453-60.416.492-2.138.757-3.292.757-3.292l.861.407.019.009,18.836,8.95.019.009s29.12,55.44,19.735,68.59c-9.4,13.15-9.4,13.15-5.648,19.735C666.909,609.937,677.241,635.3,673.494,636.238Z" transform="translate(105.617 -49.841)" fill="#1abc9c"/>
    <ellipse id="Ellipse_10" data-name="Ellipse 10" cx="21.265" cy="21.265" rx="21.265" ry="21.265" transform="translate(638.908 224.342)" fill="#2f2e41"/>
    <path id="Path_114" data-name="Path 114" d="M524.819,270.265a21.265,21.265,0,0,1,19.137-21.158c-.7-.07-1.408-.107-2.125-.107a21.265,21.265,0,1,0,0,42.53c.718,0,1.427-.038,2.126-.107a21.266,21.266,0,0,1-19.138-21.157Z" transform="translate(109.837 -36)" fill="#2f2e41"/>
    <g id="Group_17" data-name="Group 17" transform="translate(3 -30)" opacity="0.65">
      <path id="Path_120" data-name="Path 120" d="M758.443,457.021l-55.924,26.468,49.5-37.01a279.288,279.288,0,0,0-27.024-35.561L482.454,471.2l219.078-83.57a279.25,279.25,0,0,0-31.813-24.249L300.152,422.909a276.967,276.967,0,0,0-60.658,172.846h556.3A276.819,276.819,0,0,0,758.443,457.02Z" transform="translate(125.994 -7.168)" fill="#f2f2f2"/>
    </g>
    <path id="Path_115" data-name="Path 115" d="M532.618,334.943s-.444-2.472-17.81,4.04-27.776,54.57-19.093,82.789c3.5,11.372.653,19.572-3.993,25.309-17.434,21.529-10.571,53.864,14.823,64.935q1.075.469,2.194.927l10.854,6.512s-13.836-18.205-6.912-41.493a119.4,119.4,0,0,0,2.155-61.125c-.794-3.41-1.7-6.926-2.722-10.513-8.683-30.39-4.46-26.881,25.93-57.271,0,0,17.366,13.024,32.561,19.537s28.219,13.024,17.366,34.732-36.9,41.244-19.537,69.463S587.971,490.151,585.8,501h0l-2.171,10.854,13.024-13.024L587.971,516.2s28.219,0,36.9-21.707l4.341,4.341s17.366-30.39-15.2-58.61c0,0-10.854-6.512,4.341-28.219s3.525-68.378-16.012-77.061S532.618,334.943,532.618,334.943Z" transform="translate(111.914 -40.427)" fill="#2f2e41"/>
    <path id="Path_116" data-name="Path 116" d="M411.085,296.659l-36.169,62.647h8.455v8.455l41.107-71.1Z" transform="translate(246.831 134.561)" fill="#3f3d56"/>
    <path id="Path_118" data-name="Path 118" d="M797.569,607.487l-1.953-1.474c-6.944-5.339-11.523-8.8-11.94-13.57a6.814,6.814,0,0,1,6.261-7.507,7.412,7.412,0,0,1,5.847,2.146,7.411,7.411,0,0,1,5.386-3.128,6.814,6.814,0,0,1,7.469,6.306c.417,4.771-3.491,8.973-9.4,15.437Z" transform="translate(95.65 -54.061)" fill="#ff6584"/>
    <path id="Path_121" data-name="Path 121" d="M643.142,343.619a278.342,278.342,0,0,0-335.588,72.136C394.924,396.612,547.043,363.473,643.142,343.619Z" transform="translate(121.324 -39.59)" fill="#f2f2f2"/>
    <path id="Path_122" data-name="Path 122" d="M822.441,581.749l-1.07-2.2c-3.763-7.91-6.272-13.071-4.477-17.512a6.814,6.814,0,0,1,8.987-3.846,7.412,7.412,0,0,1,4.236,4.567,7.412,7.412,0,0,1,6.219-.342,6.814,6.814,0,0,1,3.792,9.01c-1.795,4.441-7.185,6.41-15.387,9.484Z" transform="translate(93.889 -52.645)" fill="#ff6584"/>
    <path id="Path_123" data-name="Path 123" d="M602.826,347.824c-9.52,28.188-24.119,53.871-53.871,53.871s-52.194-24.166-53.871-53.871c-2.142-37.957,23.432-54.028,53.871-53.871C584.914,294.139,614.125,314.372,602.826,347.824Z" transform="translate(111.218 -38.424)" fill="#2f2e41"/>
    <rect id="Rectangle_22" data-name="Rectangle 22" width="88.115" height="128.413" transform="translate(615.728 302.234)" fill="#2f2e41"/>
    <path id="Path_124" data-name="Path 124" d="M537.489,420.256s2.818,40.4-3.758,46.973,58.247,12.213,57.307,4.7-13.153-56.368-9.395-66.7S537.489,420.256,537.489,420.256Z" transform="translate(109.152 -44.291)" fill="#ffb8b8"/>
    <path id="Path_125" data-name="Path 125" d="M537.489,420.256s2.818,40.4-3.758,46.973,58.247,12.213,57.307,4.7-13.153-56.368-9.395-66.7S537.489,420.256,537.489,420.256Z" transform="translate(109.152 -44.291)" opacity="0.1"/>
    <path id="Path_126" data-name="Path 126" d="M466.961,527.277,433.205,641.421l-1.353,4.6h-56.8c22.6-69.962,78.477-173.131,78.477-173.131l8.723-1.977Z" transform="translate(117.684 -47.967)" fill="#1abc9c"/>
    <path id="Path_127" data-name="Path 127" d="M466.961,527.277,433.205,641.421l-1.353,4.6h-56.8c22.6-69.962,78.477-173.131,78.477-173.131l8.723-1.977Z" transform="translate(117.684 -47.967)" opacity="0.1"/>
    <ellipse id="Ellipse_11" data-name="Ellipse 11" cx="42.276" cy="42.276" rx="42.276" ry="42.276" transform="translate(615.64 305.506)" fill="#ffb8b8"/>
    <path id="Path_128" data-name="Path 128" d="M593.163,462.271s-15.031,14.092-31.942,11.273-24.009-23.382-24.009-23.382l-16.387,12.109s-4.7,33.82,16.91,37.578,52.61,4.7,59.186,0S593.163,462.271,593.163,462.271Z" transform="translate(109.846 -46.848)" fill="#3f3d56"/>
    <path id="Path_129" data-name="Path 129" d="M640.27,512.314l-2.7,8.761L599.513,645.162H435.71a38.391,38.391,0,0,0,.766-4.6c2.119-17.663.87-62.223.87-65.289,0-3.765,15.96-96.764,19.735-103.349a6.111,6.111,0,0,1,2.242-1.873c4.38-2.517,14.068-5.336,24.513-7.824.009-.009.009-.009.019-.009,5.837-1.419,11.93-2.725,17.455-3.832h.009c5.421-1.088,10.284-1.977,13.841-2.564a56.664,56.664,0,0,1,5.8-.8c.87,0,1.5,1.031,1.93,2.611,1.429,5.147.88,16.168.88,16.168a28.546,28.546,0,0,0,4.219,3.955,53.594,53.594,0,0,0,11.788,7.029,69.913,69.913,0,0,0,11.183,3.813h.009a81.713,81.713,0,0,0,12.252,2.129,37.808,37.808,0,0,0,10.123-.2h.019c9.962-1.646,13.614-7.833,15.317-12.772.3-.9.539-1.76.747-2.545,0-.009.009-.028.009-.038.624-2.412.889-4.106,1.552-4.078H591c1.712.161,23.311,18.675,37.342,30.833,6.66,5.762,11.608,10.113,11.911,10.378Z" transform="translate(114.413 -47.11)" fill="#1abc9c"/>
    <path id="Path_130" data-name="Path 130" d="M646.031,524.154,607.97,648.241H592.54a10.154,10.154,0,0,0,1.693-6.944c-.492-3.463,10.227-38.742,20.549-71.571,9.385-29.83,18.439-57.606,18.439-57.606l8.921,4.219S643.741,519.357,646.031,524.154Z" transform="translate(105.956 -50.189)" opacity="0.1"/>
    <path id="Path_131" data-name="Path 131" d="M673.494,636.238c-1.854.464-1.656,5.97-1.76,11.656h-72.9a10.746,10.746,0,0,0,2.327-7.89c-.483-3.321,6.708-37.559,13.964-70.624,5.7-26.149,11.457-51.57,13.453-60.416.492-2.138.757-3.292.757-3.292l.861.407.019.009,18.836,8.95.019.009s29.12,55.44,19.735,68.59c-9.4,13.15-9.4,13.15-5.648,19.735C666.909,609.937,677.241,635.3,673.494,636.238Z" transform="translate(105.617 -49.841)" fill="#1abc9c"/>
    <ellipse id="Ellipse_12" data-name="Ellipse 12" cx="21.265" cy="21.265" rx="21.265" ry="21.265" transform="translate(638.908 224.342)" fill="#2f2e41"/>
    <path id="Path_132" data-name="Path 132" d="M524.819,270.265a21.265,21.265,0,0,1,19.137-21.158c-.7-.07-1.408-.107-2.125-.107a21.265,21.265,0,1,0,0,42.53c.718,0,1.427-.038,2.126-.107a21.266,21.266,0,0,1-19.138-21.157Z" transform="translate(109.837 -36)" fill="#2f2e41"/>
    <path id="Path_133" data-name="Path 133" d="M532.618,334.943s-.444-2.472-17.81,4.04-27.776,54.57-19.093,82.789c3.5,11.372.653,19.572-3.993,25.309-17.434,21.529-10.571,53.864,14.823,64.935q1.075.469,2.194.927l10.854,6.512s-13.836-18.205-6.912-41.493a119.4,119.4,0,0,0,2.155-61.125c-.794-3.41-1.7-6.926-2.722-10.513-8.683-30.39-4.46-26.881,25.93-57.271,0,0,17.366,13.024,32.561,19.537s28.219,13.024,17.366,34.732-36.9,41.244-19.537,69.463S587.971,490.151,585.8,501h0l-2.171,10.854,13.024-13.024L587.971,516.2s28.219,0,36.9-21.707l4.341,4.341s17.366-30.39-15.2-58.61c0,0-10.854-6.512,4.341-28.219s3.525-68.378-16.012-77.061S532.618,334.943,532.618,334.943Z" transform="translate(111.914 -40.427)" fill="#2f2e41"/>
    <path id="Path_134" data-name="Path 134" d="M411.085,296.659l-36.169,62.647h8.455v8.455l41.107-71.1Z" transform="translate(246.831 134.561)" fill="#3f3d56"/>
  </g>
</svg>
