<svg width="487" height="262" xmlns="http://www.w3.org/2000/svg" xmlns:xlink="http://www.w3.org/1999/xlink" xmlns:svgjs="http://svgjs.com/svgjs" viewBox="396 269 487 262"><svg width="486" height="262" xmlns="http://www.w3.org/2000/svg" xmlns:xlink="http://www.w3.org/1999/xlink" xmlns:svgjs="http://svgjs.com/svgjs" fill="#fafafa" x="397" y="269"><svg xmlns="http://www.w3.org/2000/svg" xmlns:xlink="http://www.w3.org/1999/xlink" width="486" height="262" viewBox="0 -0.001 486 262"><path paint-order="stroke fill markers" fill-rule="evenodd" d="M0 0h486v262H0V0z"/></svg></svg><svg width="487" height="258" xmlns="http://www.w3.org/2000/svg" xmlns:xlink="http://www.w3.org/1999/xlink" xmlns:svgjs="http://svgjs.com/svgjs" viewBox="396 271 487 258" x="396" y="271"><svg width="68" height="100" xmlns="http://www.w3.org/2000/svg" xmlns:xlink="http://www.w3.org/1999/xlink" xmlns:svgjs="http://svgjs.com/svgjs" viewBox="0.393 0 67.213 100" fill="none" x="815" y="271"><svg xmlns="http://www.w3.org/2000/svg" xmlns:xlink="http://www.w3.org/1999/xlink" width="68" height="100" viewBox="0.766 0 67.194 99.971"><path paint-order="stroke fill markers" d="M67.96 45.833v54.138l-.916-1.364L1.384.915.766 0h36.388l.613.915L67.044 44.47l.915 1.364z"/></svg></svg><svg width="487" height="257" xmlns="http://www.w3.org/2000/svg" xmlns:xlink="http://www.w3.org/1999/xlink" xmlns:svgjs="http://svgjs.com/svgjs" viewBox="0.309 0 486.383 257" fill="none" x="396" y="271"><svg xmlns="http://www.w3.org/2000/svg" xmlns:xlink="http://www.w3.org/1999/xlink" width="487" height="257" viewBox="1 0 485.959 256.776"><path paint-order="stroke fill markers" d="M257.318 0A255.532 255.532 0 0 0 76.073 75.074a257.346 257.346 0 0 0-11.76 12.57A254.48 254.48 0 0 0 43.03 115.58a256.285 256.285 0 0 0-23.402 44.634 252.25 252.25 0 0 0-7.316 20.542 253.621 253.621 0 0 0-10.48 54.673A262.262 262.262 0 0 0 1 256.32v.457h485.96V0H257.317zm228.726 255.861H1.915c.01-6.223.241-12.39.696-18.5a253.585 253.585 0 0 1 17.544-75.838 254.023 254.023 0 0 1 17.96-36.16 230.314 230.314 0 0 1 5.396-8.602 255.684 255.684 0 0 1 21.241-28.042C111.61 34.95 180.566.915 257.318.915h228.726v254.946z"/></svg></svg><svg width="24" height="69" xmlns="http://www.w3.org/2000/svg" xmlns:xlink="http://www.w3.org/1999/xlink" xmlns:svgjs="http://svgjs.com/svgjs" viewBox="0.158 0 23.684 69" fill="#1abc9c" x="605" y="459"><svg xmlns="http://www.w3.org/2000/svg" xmlns:xlink="http://www.w3.org/1999/xlink" width="24" height="69" viewBox="0.068 0.793 23.087 67.262"><path paint-order="stroke fill markers" fill-rule="evenodd" d="M18.782 32.042c6.171 18.573 4.004 36.013 4.004 36.013S10.612 55.381 4.441 36.807C-1.731 18.233.437.793.437.793S12.61 13.468 18.782 32.042z"/></svg></svg><svg width="24" height="69" xmlns="http://www.w3.org/2000/svg" xmlns:xlink="http://www.w3.org/1999/xlink" xmlns:svgjs="http://svgjs.com/svgjs" viewBox="0.158 0 23.684 69" fill="#1abc9c" x="627" y="459"><svg xmlns="http://www.w3.org/2000/svg" xmlns:xlink="http://www.w3.org/1999/xlink" width="24" height="69" viewBox="0.417 0.793 23.087 67.262"><path paint-order="stroke fill markers" fill-rule="evenodd" d="M4.79 32.042C-1.382 50.615.786 68.055.786 68.055S12.959 55.381 19.13 36.807C25.303 18.233 23.135.793 23.135.793S10.962 13.468 4.79 32.042z"/></svg></svg><svg width="16" height="72" xmlns="http://www.w3.org/2000/svg" xmlns:xlink="http://www.w3.org/1999/xlink" xmlns:svgjs="http://svgjs.com/svgjs" viewBox="0.307 0 15.386 72" fill="#3f3d56" x="619" y="455"><svg xmlns="http://www.w3.org/2000/svg" xmlns:xlink="http://www.w3.org/1999/xlink" width="16" height="72" viewBox="0.15 0.972 15.143 70.862"><path paint-order="stroke fill markers" fill-rule="evenodd" d="M15.276 36.243c.413 19.568-6.806 35.59-6.806 35.59S.58 56.13.167 36.562C-.247 16.993 6.972.972 6.972.972s7.89 15.703 8.304 35.27z"/></svg></svg><svg width="35" height="3" xmlns="http://www.w3.org/2000/svg" xmlns:xlink="http://www.w3.org/1999/xlink" xmlns:svgjs="http://svgjs.com/svgjs" viewBox="0 0.539 35 1.921" fill="#3f3d56" x="610" y="526"><svg xmlns="http://www.w3.org/2000/svg" xmlns:xlink="http://www.w3.org/1999/xlink" width="35" height="3" viewBox="0.013 0.096 34.907 1.916"><path paint-order="stroke fill markers" fill-rule="evenodd" d="M17.467 2.012C7.815 2.012.013 1.584.013 1.054S7.815.096 17.467.096c9.651 0 17.453.429 17.453.958 0 .53-7.802.958-17.453.958z"/></svg></svg><svg width="20" height="21" xmlns="http://www.w3.org/2000/svg" xmlns:xlink="http://www.w3.org/1999/xlink" xmlns:svgjs="http://svgjs.com/svgjs" viewBox="0 0.5 20 20" fill="#f2f2f2" x="451" y="507"><svg xmlns="http://www.w3.org/2000/svg" xmlns:xlink="http://www.w3.org/1999/xlink" width="20" height="21" viewBox="0.165 0.546 19.806 19.806"><path paint-order="stroke fill markers" fill-rule="evenodd" d="M10.068 20.352A9.894 9.894 0 0 1 .165 10.45 9.894 9.894 0 0 1 10.068.546a9.894 9.894 0 0 1 9.903 9.903 9.894 9.894 0 0 1-9.903 9.903z"/></svg></svg><svg width="28" height="28" xmlns="http://www.w3.org/2000/svg" xmlns:xlink="http://www.w3.org/1999/xlink" xmlns:svgjs="http://svgjs.com/svgjs" viewBox="0.002 0 27.996 28" fill="#3f3d56" x="449" y="501"><svg xmlns="http://www.w3.org/2000/svg" xmlns:xlink="http://www.w3.org/1999/xlink" width="28" height="28" viewBox="0.496 0.428 26.784 26.788"><path paint-order="stroke fill markers" fill-rule="evenodd" d="M13.885.428C6.493.438.503 6.43.495 13.822c0 .073 0 .146.005.22a13.422 13.422 0 0 0 9.98 12.734c2.234.586 4.58.586 6.814 0a12.996 12.996 0 0 0 2.457-.915A13.394 13.394 0 0 0 13.885.428zM17.16 25.86a12.298 12.298 0 0 1-3.93.421h-.005a12.059 12.059 0 0 1-2.613-.42 12.52 12.52 0 0 1-8.168-7.07v-.005A12.475 12.475 0 1 1 17.16 25.86z"/></svg></svg><svg width="75" height="14" xmlns="http://www.w3.org/2000/svg" xmlns:xlink="http://www.w3.org/1999/xlink" xmlns:svgjs="http://svgjs.com/svgjs" viewBox="0 0.341 75 13.318" fill="#f2f2f2" x="501" y="450"><svg xmlns="http://www.w3.org/2000/svg" xmlns:xlink="http://www.w3.org/1999/xlink" width="75" height="14" viewBox="0.327 0.16 74.131 13.163"><path paint-order="stroke fill markers" fill-rule="evenodd" d="M.327.16h74.131v13.164H.328V.16z"/></svg></svg><svg width="75" height="14" xmlns="http://www.w3.org/2000/svg" xmlns:xlink="http://www.w3.org/1999/xlink" xmlns:svgjs="http://svgjs.com/svgjs" viewBox="0 0.341 75 13.318" fill="#f2f2f2" x="732" y="327"><svg xmlns="http://www.w3.org/2000/svg" xmlns:xlink="http://www.w3.org/1999/xlink" width="75" height="14" viewBox="0.414 0.066 74.131 13.164"><path paint-order="stroke fill markers" fill-rule="evenodd" d="M.414.066h74.131V13.23H.415V.066z"/></svg></svg><svg width="75" height="15" xmlns="http://www.w3.org/2000/svg" xmlns:xlink="http://www.w3.org/1999/xlink" xmlns:svgjs="http://svgjs.com/svgjs" viewBox="0 0.841 75 13.318" fill="#f2f2f2" x="732" y="355"><svg xmlns="http://www.w3.org/2000/svg" xmlns:xlink="http://www.w3.org/1999/xlink" width="75" height="15" viewBox="0.414 0.895 74.131 13.164"><path paint-order="stroke fill markers" fill-rule="evenodd" d="M.414.895h74.131V14.06H.415V.895z"/></svg></svg><svg width="75" height="14" xmlns="http://www.w3.org/2000/svg" xmlns:xlink="http://www.w3.org/1999/xlink" xmlns:svgjs="http://svgjs.com/svgjs" viewBox="0 0.341 75 13.318" fill="#f2f2f2" x="732" y="383"><svg xmlns="http://www.w3.org/2000/svg" xmlns:xlink="http://www.w3.org/1999/xlink" width="75" height="14" viewBox="0.414 0.809 74.131 13.163"><path paint-order="stroke fill markers" fill-rule="evenodd" d="M.414.809h74.131v13.163H.415V.81z"/></svg></svg><svg width="75" height="14" xmlns="http://www.w3.org/2000/svg" xmlns:xlink="http://www.w3.org/1999/xlink" xmlns:svgjs="http://svgjs.com/svgjs" viewBox="0 0.341 75 13.318" fill="#f2f2f2" x="732" y="411"><svg xmlns="http://www.w3.org/2000/svg" xmlns:xlink="http://www.w3.org/1999/xlink" width="75" height="14" viewBox="0.414 0.722 74.131 13.163"><path paint-order="stroke fill markers" fill-rule="evenodd" d="M.414.722h74.131v13.163H.415V.722z"/></svg></svg><svg width="75" height="14" xmlns="http://www.w3.org/2000/svg" xmlns:xlink="http://www.w3.org/1999/xlink" xmlns:svgjs="http://svgjs.com/svgjs" viewBox="0 0.341 75 13.318" fill="#f2f2f2" x="732" y="440"><svg xmlns="http://www.w3.org/2000/svg" xmlns:xlink="http://www.w3.org/1999/xlink" width="75" height="14" viewBox="0.414 0.551 74.131 13.163"><path paint-order="stroke fill markers" fill-rule="evenodd" d="M.414.55h74.131v13.164H.415V.551z"/></svg></svg><svg width="75" height="14" xmlns="http://www.w3.org/2000/svg" xmlns:xlink="http://www.w3.org/1999/xlink" xmlns:svgjs="http://svgjs.com/svgjs" viewBox="0 0.341 75 13.318" fill="#f2f2f2" x="732" y="469"><svg xmlns="http://www.w3.org/2000/svg" xmlns:xlink="http://www.w3.org/1999/xlink" width="75" height="14" viewBox="0.414 0.38 74.131 13.163"><path paint-order="stroke fill markers" fill-rule="evenodd" d="M.414.38h74.131v13.163H.415V.38z"/></svg></svg><svg width="100" height="19" xmlns="http://www.w3.org/2000/svg" xmlns:xlink="http://www.w3.org/1999/xlink" xmlns:svgjs="http://svgjs.com/svgjs" viewBox="0 0.241 100 18.518" fill="#3f3d56" x="500" y="445"><svg xmlns="http://www.w3.org/2000/svg" xmlns:xlink="http://www.w3.org/1999/xlink" width="100" height="19" viewBox="0.87 0.478 98.841 18.304"><path paint-order="stroke fill markers" fill-rule="evenodd" d="M.87.478V18.78h98.841V.478H.87zm97.926 17.388H1.786V1.393h97.01v16.473z"/></svg></svg><svg width="10" height="11" xmlns="http://www.w3.org/2000/svg" xmlns:xlink="http://www.w3.org/1999/xlink" xmlns:svgjs="http://svgjs.com/svgjs" viewBox="0 0.5 10 10" fill="#3f3d56" x="661" y="337"><svg xmlns="http://www.w3.org/2000/svg" xmlns:xlink="http://www.w3.org/1999/xlink" width="10" height="11" viewBox="0.029 0.942 9.152 9.152"><path paint-order="stroke fill markers" fill-rule="evenodd" d="M4.605 10.094A4.572 4.572 0 0 1 .029 5.518 4.572 4.572 0 0 1 4.605.942a4.572 4.572 0 0 1 4.576 4.576 4.572 4.572 0 0 1-4.576 4.576z"/></svg></svg><svg width="10" height="10" xmlns="http://www.w3.org/2000/svg" xmlns:xlink="http://www.w3.org/1999/xlink" xmlns:svgjs="http://svgjs.com/svgjs" fill="#3f3d56" x="661" y="366"><svg xmlns="http://www.w3.org/2000/svg" xmlns:xlink="http://www.w3.org/1999/xlink" width="10" height="10" viewBox="0.029 0.313 9.152 9.152"><path paint-order="stroke fill markers" fill-rule="evenodd" d="M4.605 9.465A4.572 4.572 0 0 1 .029 4.889 4.572 4.572 0 0 1 4.605.313a4.572 4.572 0 0 1 4.576 4.576 4.572 4.572 0 0 1-4.576 4.576z"/></svg></svg><svg width="10" height="10" xmlns="http://www.w3.org/2000/svg" xmlns:xlink="http://www.w3.org/1999/xlink" xmlns:svgjs="http://svgjs.com/svgjs" fill="#3f3d56" x="661" y="394"><svg xmlns="http://www.w3.org/2000/svg" xmlns:xlink="http://www.w3.org/1999/xlink" width="10" height="10" viewBox="0.029 0.684 9.152 9.152"><path paint-order="stroke fill markers" fill-rule="evenodd" d="M4.605 9.836A4.572 4.572 0 0 1 .029 5.26 4.572 4.572 0 0 1 4.605.684 4.572 4.572 0 0 1 9.181 5.26a4.572 4.572 0 0 1-4.576 4.576z"/></svg></svg><svg width="10" height="10" xmlns="http://www.w3.org/2000/svg" xmlns:xlink="http://www.w3.org/1999/xlink" xmlns:svgjs="http://svgjs.com/svgjs" fill="#3f3d56" x="661" y="423"><svg xmlns="http://www.w3.org/2000/svg" xmlns:xlink="http://www.w3.org/1999/xlink" width="10" height="10" viewBox="0.029 0.055 9.152 9.152"><path paint-order="stroke fill markers" fill-rule="evenodd" d="M4.605 9.207A4.572 4.572 0 0 1 .029 4.63 4.572 4.572 0 0 1 4.605.055a4.572 4.572 0 0 1 4.576 4.576 4.572 4.572 0 0 1-4.576 4.576z"/></svg></svg><svg width="10" height="10" xmlns="http://www.w3.org/2000/svg" xmlns:xlink="http://www.w3.org/1999/xlink" xmlns:svgjs="http://svgjs.com/svgjs" fill="#3f3d56" x="661" y="451"><svg xmlns="http://www.w3.org/2000/svg" xmlns:xlink="http://www.w3.org/1999/xlink" width="10" height="10" viewBox="0.029 0.426 9.152 9.152"><path paint-order="stroke fill markers" fill-rule="evenodd" d="M4.605 9.578A4.572 4.572 0 0 1 .029 5.002 4.572 4.572 0 0 1 4.605.426a4.572 4.572 0 0 1 4.576 4.576 4.572 4.572 0 0 1-4.576 4.576z"/></svg></svg><svg width="10" height="10" xmlns="http://www.w3.org/2000/svg" xmlns:xlink="http://www.w3.org/1999/xlink" xmlns:svgjs="http://svgjs.com/svgjs" fill="#3f3d56" x="661" y="479"><svg xmlns="http://www.w3.org/2000/svg" xmlns:xlink="http://www.w3.org/1999/xlink" width="10" height="10" viewBox="0.029 0.797 9.152 9.152"><path paint-order="stroke fill markers" fill-rule="evenodd" d="M4.605 9.95A4.572 4.572 0 0 1 .029 5.372 4.572 4.572 0 0 1 4.605.797a4.572 4.572 0 0 1 4.576 4.576 4.572 4.572 0 0 1-4.576 4.576z"/></svg></svg><svg width="127" height="1" xmlns="http://www.w3.org/2000/svg" xmlns:xlink="http://www.w3.org/1999/xlink" xmlns:svgjs="http://svgjs.com/svgjs" viewBox="0 0.037 127 0.927" fill="#3f3d56" x="706" y="342"><svg xmlns="http://www.w3.org/2000/svg" xmlns:xlink="http://www.w3.org/1999/xlink" width="127" height="1" viewBox="0.789 0.06 125.382 0.915"><path paint-order="stroke fill markers" fill-rule="evenodd" d="M.789.06H126.17v.915H.79V.06z"/></svg></svg><svg width="127" height="2" xmlns="http://www.w3.org/2000/svg" xmlns:xlink="http://www.w3.org/1999/xlink" xmlns:svgjs="http://svgjs.com/svgjs" viewBox="0 0.537 127 0.927" fill="#3f3d56" x="706" y="370"><svg xmlns="http://www.w3.org/2000/svg" xmlns:xlink="http://www.w3.org/1999/xlink" width="127" height="2" viewBox="0.789 0.431 125.382 0.915"><path paint-order="stroke fill markers" fill-rule="evenodd" d="M.789.431H126.17v.915H.79V.431z"/></svg></svg><svg width="127" height="2" xmlns="http://www.w3.org/2000/svg" xmlns:xlink="http://www.w3.org/1999/xlink" xmlns:svgjs="http://svgjs.com/svgjs" viewBox="0 0.537 127 0.927" fill="#3f3d56" x="706" y="398"><svg xmlns="http://www.w3.org/2000/svg" xmlns:xlink="http://www.w3.org/1999/xlink" width="127" height="2" viewBox="0.789 0.802 125.382 0.915"><path paint-order="stroke fill markers" fill-rule="evenodd" d="M.789.802H126.17v.915H.79V.802z"/></svg></svg><svg width="127" height="2" xmlns="http://www.w3.org/2000/svg" xmlns:xlink="http://www.w3.org/1999/xlink" xmlns:svgjs="http://svgjs.com/svgjs" viewBox="0 0.536 127 0.927" fill="#3f3d56" x="706" y="427"><svg xmlns="http://www.w3.org/2000/svg" xmlns:xlink="http://www.w3.org/1999/xlink" width="127" height="2" viewBox="0.789 0.173 125.382 0.916"><path paint-order="stroke fill markers" fill-rule="evenodd" d="M.789.173H126.17v.916H.79V.173z"/></svg></svg><svg width="127" height="2" xmlns="http://www.w3.org/2000/svg" xmlns:xlink="http://www.w3.org/1999/xlink" xmlns:svgjs="http://svgjs.com/svgjs" viewBox="0 0.536 127 0.927" fill="#3f3d56" x="706" y="455"><svg xmlns="http://www.w3.org/2000/svg" xmlns:xlink="http://www.w3.org/1999/xlink" width="127" height="2" viewBox="0.789 0.544 125.382 0.916"><path paint-order="stroke fill markers" fill-rule="evenodd" d="M.789.544H126.17v.916H.79V.544z"/></svg></svg><svg width="127" height="2" xmlns="http://www.w3.org/2000/svg" xmlns:xlink="http://www.w3.org/1999/xlink" xmlns:svgjs="http://svgjs.com/svgjs" viewBox="0 0.537 127 0.927" fill="#3f3d56" x="706" y="483"><svg xmlns="http://www.w3.org/2000/svg" xmlns:xlink="http://www.w3.org/1999/xlink" width="127" height="2" viewBox="0.789 0.916 125.382 0.915"><path paint-order="stroke fill markers" fill-rule="evenodd" d="M.789.916H126.17v.915H.79V.916z"/></svg></svg><svg width="23" height="23" xmlns="http://www.w3.org/2000/svg" xmlns:xlink="http://www.w3.org/1999/xlink" xmlns:svgjs="http://svgjs.com/svgjs" fill="#3f3d56" x="842" y="488"><svg xmlns="http://www.w3.org/2000/svg" xmlns:xlink="http://www.w3.org/1999/xlink" width="23" height="23" viewBox="0.729 0.526 21.897 21.897"><path paint-order="stroke fill markers" fill-rule="evenodd" d="M12.757 22.422L.73 12.554 10.597.526l12.029 9.868-9.869 12.028zm-10.74-9.995l10.614 8.707 8.708-10.613-10.613-8.708-8.708 10.614z"/></svg></svg><svg width="22" height="22" xmlns="http://www.w3.org/2000/svg" xmlns:xlink="http://www.w3.org/1999/xlink" xmlns:svgjs="http://svgjs.com/svgjs" fill="#1abc9c" x="659" y="285"><svg xmlns="http://www.w3.org/2000/svg" xmlns:xlink="http://www.w3.org/1999/xlink" width="22" height="22" viewBox="0.876 0.997 20.608 20.608"><path paint-order="stroke fill markers" fill-rule="evenodd" d="M10.164.997l11.321 9.287-9.288 11.321-11.32-9.288L10.163.997z"/></svg></svg><svg width="123" height="122" xmlns="http://www.w3.org/2000/svg" xmlns:xlink="http://www.w3.org/1999/xlink" xmlns:svgjs="http://svgjs.com/svgjs" viewBox="0.499 0 122.002 122" fill="#3f3d56" x="489" y="310"><svg xmlns="http://www.w3.org/2000/svg" xmlns:xlink="http://www.w3.org/1999/xlink" width="123" height="122" viewBox="0.424 0.024 121.727 121.725"><path paint-order="stroke fill markers" fill-rule="evenodd" d="M122.15 60.89a60.553 60.553 0 0 1-11.714 35.893A61.032 61.032 0 0 1 89.89 114.62c-.462.247-.929.49-1.395.723a60.9 60.9 0 0 1-60.93-3.794 58.234 58.234 0 0 1-3.963-2.873 59.087 59.087 0 0 1-2.255-1.872A60.923 60.923 0 0 1 9.472 92.82c-13.535-21.964-11.75-50.076 4.453-70.153C30.128 2.59 57.229-5.09 81.555 3.501c24.328 8.592 40.595 31.588 40.596 57.388z"/></svg></svg><svg width="34" height="34" xmlns="http://www.w3.org/2000/svg" xmlns:xlink="http://www.w3.org/1999/xlink" xmlns:svgjs="http://svgjs.com/svgjs" viewBox="0 0 33.999 34" fill="#a0616a" x="531" y="334"><svg xmlns="http://www.w3.org/2000/svg" xmlns:xlink="http://www.w3.org/1999/xlink" width="34" height="34" viewBox="0.418 0.725 33.161 33.162"><path paint-order="stroke fill markers" fill-rule="evenodd" d="M16.998 33.887c-9.169 0-16.58-7.412-16.58-16.582 0-9.169 7.411-16.58 16.58-16.58 9.17 0 16.581 7.411 16.581 16.58 0 9.17-7.411 16.582-16.58 16.582z"/></svg></svg><svg width="38" height="45" xmlns="http://www.w3.org/2000/svg" xmlns:xlink="http://www.w3.org/1999/xlink" xmlns:svgjs="http://svgjs.com/svgjs" viewBox="0.253 0 37.493 45" fill="#a0616a" x="532" y="357"><svg xmlns="http://www.w3.org/2000/svg" xmlns:xlink="http://www.w3.org/1999/xlink" width="38" height="45" viewBox="0.806 0.869 36.264 43.525"><path paint-order="stroke fill markers" fill-rule="evenodd" d="M4.6 2.25s5.526 12.436-2.074 17.272c-7.599 4.836 12.436 24.871 12.436 24.871l22.108-23.49S25.325 13.305 27.398.87L4.599 2.25z"/></svg></svg><svg width="7" height="6" xmlns="http://www.w3.org/2000/svg" xmlns:xlink="http://www.w3.org/1999/xlink" xmlns:svgjs="http://svgjs.com/svgjs" viewBox="0 0.661 7 4.679" fill="#a0616a" x="581" y="418"><svg xmlns="http://www.w3.org/2000/svg" xmlns:xlink="http://www.w3.org/1999/xlink" width="7" height="6" viewBox="0.503 0.905 6.182 4.132"><path paint-order="stroke fill markers" fill-rule="evenodd" d="M6.685.905A60.794 60.794 0 0 1 1.871 4.3c-.398.252-.796.499-1.199.737l-.169-.92 1.593-.828L6.686.905z"/></svg></svg><svg width="81" height="58" xmlns="http://www.w3.org/2000/svg" xmlns:xlink="http://www.w3.org/1999/xlink" xmlns:svgjs="http://svgjs.com/svgjs" viewBox="0 0.39 81 57.219" fill="#1abc9c" x="511" y="374"><svg xmlns="http://www.w3.org/2000/svg" xmlns:xlink="http://www.w3.org/1999/xlink" width="81" height="58" viewBox="0.038 0.65 80.83 57.099"><path paint-order="stroke fill markers" fill-rule="evenodd" d="M70.672 49.037c.403-.238.801-.485 1.2-.737l.013-.183.21-.828 8.773-34.403L54.277.65l-15.55 9.473-13.929-8.59s-8.182.298-10.255 2.37c-1.624 1.626-9.59 5.364-12.977 6.91-.943.43-1.528.691-1.528.691s.521 15.678 1.565 33.172a58.136 58.136 0 0 0 3.962 2.873 60.901 60.901 0 0 0 60.93 3.794l4.177-2.306z"/></svg></svg><svg width="19" height="38" xmlns="http://www.w3.org/2000/svg" xmlns:xlink="http://www.w3.org/1999/xlink" xmlns:svgjs="http://svgjs.com/svgjs" viewBox="0.142 0 18.716 38" fill="#1abc9c" x="498" y="384"><svg xmlns="http://www.w3.org/2000/svg" xmlns:xlink="http://www.w3.org/1999/xlink" width="19" height="38" viewBox="0.472 0.814 18.093 36.736"><path paint-order="stroke fill markers" fill-rule="evenodd" d="M18.565.814v36.735a58.136 58.136 0 0 1-3.963-2.873 58.713 58.713 0 0 1-2.255-1.872A60.928 60.928 0 0 1 .472 18.82a619.89 619.89 0 0 1 1.51-4.882C5.437 2.886 13.038.814 13.038.814h5.527z"/></svg></svg><svg width="23" height="40" xmlns="http://www.w3.org/2000/svg" xmlns:xlink="http://www.w3.org/1999/xlink" xmlns:svgjs="http://svgjs.com/svgjs" viewBox="0.29 0 22.42 40" fill="#1abc9c" x="577" y="386"><svg xmlns="http://www.w3.org/2000/svg" xmlns:xlink="http://www.w3.org/1999/xlink" width="23" height="40" viewBox="0.495 0.196 21.942 39.147"><path paint-order="stroke fill markers" fill-rule="evenodd" d="M4.672 37.037c.403-.238.801-.485 1.2-.737a60.377 60.377 0 0 0 4.813-3.395 61.032 61.032 0 0 0 11.751-12.122C19.622 11.988 14.868.886 14.868.886L5.194.196S1.268 31.624.494 39.343l4.178-2.306z"/></svg></svg><svg width="39" height="26" xmlns="http://www.w3.org/2000/svg" xmlns:xlink="http://www.w3.org/1999/xlink" xmlns:svgjs="http://svgjs.com/svgjs" viewBox="0 0.286 39 25.427" fill="#2f2e41" x="529" y="327"><svg xmlns="http://www.w3.org/2000/svg" xmlns:xlink="http://www.w3.org/1999/xlink" width="39" height="26" viewBox="0.061 0.874 38.334 24.993"><path paint-order="stroke fill markers" fill-rule="evenodd" d="M8.832 5.114A31.494 31.494 0 0 1 6.24 7.1a24.61 24.61 0 0 0-3.127 3.105l-1.069 1.197C1.133 12.42.168 13.582.206 14.947c.015.507.17.998.231 1.502.242 1.996-.978 4.19.026 5.93.29.504.74.898 1.06 1.383.407.622.587 1.365.51 2.104 1.08.045 1.965-.923 2.303-1.948.339-1.026.293-2.134.457-3.2.165-1.068.628-2.198 1.598-2.674 2.07-1.013 4.445 1.623 6.654.966 1.542-.459 2.355-2.37 3.932-2.69 1.128-.23 2.215.44 3.264.915 1.049.475 2.462.695 3.204-.185.491-.584.544-1.518 1.195-1.915.78-.474 1.758.187 2.349.884.59.697 1.244 1.549 2.157 1.523 1.212-.034 2.14-1.647 3.29-1.264 1.298.432.701 2.51 1.489 3.628.665.945 2.06.89 3.206.734a1.148 1.148 0 0 0 1.196-1.534l-.48-6.348a3.066 3.066 0 0 0-.28-1.267c-.333-.604-1.023-.91-1.493-1.414-.986-1.063-.939-2.926-2.166-3.699-.637-.4-1.47-.388-2.103-.797-.812-.523-1.073-1.572-1.641-2.352-.813-1.116-2.233-1.634-3.606-1.776-1.373-.142-2.76.03-4.139-.015-2.805-.092-5.61-.882-8.429-.42-2.46.404-3.492 2.49-5.158 4.096z"/></svg></svg><svg width="5" height="4" xmlns="http://www.w3.org/2000/svg" xmlns:xlink="http://www.w3.org/1999/xlink" xmlns:svgjs="http://svgjs.com/svgjs" viewBox="0.5 0 4 4" fill="#3f3d56" x="862" y="325"><svg xmlns="http://www.w3.org/2000/svg" xmlns:xlink="http://www.w3.org/1999/xlink" width="5" height="4" viewBox="0.758 0.145 3.831 3.831"><path paint-order="stroke fill markers" fill-rule="evenodd" d="M2.674 3.976A1.914 1.914 0 0 1 .758 2.06C.758 1 1.614.145 2.674.145 3.733.145 4.589 1 4.589 2.06a1.914 1.914 0 0 1-1.915 1.915z"/></svg></svg><svg width="5" height="5" xmlns="http://www.w3.org/2000/svg" xmlns:xlink="http://www.w3.org/1999/xlink" xmlns:svgjs="http://svgjs.com/svgjs" fill="#3f3d56" x="849" y="301"><svg xmlns="http://www.w3.org/2000/svg" xmlns:xlink="http://www.w3.org/1999/xlink" width="5" height="5" viewBox="0.486 0.807 3.831 3.831"><path paint-order="stroke fill markers" fill-rule="evenodd" d="M2.402 4.638A1.914 1.914 0 0 1 .486 2.723c0-1.06.857-1.916 1.916-1.916 1.06 0 1.916.857 1.916 1.916 0 1.06-.857 1.915-1.916 1.915z"/></svg></svg><svg width="5" height="5" xmlns="http://www.w3.org/2000/svg" xmlns:xlink="http://www.w3.org/1999/xlink" xmlns:svgjs="http://svgjs.com/svgjs" fill="#3f3d56" x="843" y="276"><svg xmlns="http://www.w3.org/2000/svg" width="5" height="5" viewBox="0.995 0.639 3.831 3.831"><path paint-order="stroke fill markers" fill-rule="evenodd" d="M2.91 4.47A1.914 1.914 0 0 1 .996 2.555c0-1.06.856-1.916 1.916-1.916 1.059 0 1.915.857 1.915 1.916A1.914 1.914 0 0 1 2.911 4.47z"/></svg></svg></svg></svg>