<svg xmlns="http://www.w3.org/2000/svg" xmlns:xlink="http://www.w3.org/1999/xlink" width="379" height="379" viewBox="0 0 379 379">
  <defs>
    <clipPath id="clip-path">
      <rect id="Rectangle_24" data-name="Rectangle 24" width="379" height="379" transform="translate(520 237)" fill="#fff" stroke="#707070" stroke-width="1"/>
    </clipPath>
  </defs>
  <g id="Mask_Group_1" data-name="Mask Group 1" transform="translate(-520 -237)" clip-path="url(#clip-path)">
    <g id="Group_8" data-name="Group 8" transform="translate(514.231 244.891)">
      <path id="Path_137" data-name="Path 137" d="M629.2,360.995c-11.848,35.079-30.015,67.041-67.041,67.041s-64.955-30.074-67.041-67.041c-2.666-47.236,29.161-67.237,67.041-67.041C606.906,294.185,643.258,319.364,629.2,360.995Z" transform="translate(-353.782 -241.026)" fill="#2f2e41"/>
      <rect id="Rectangle_23" data-name="Rectangle 23" width="109.657" height="159.808" transform="translate(153.064 111.05)" fill="#2f2e41"/>
      <path id="Path_138" data-name="Path 138" d="M538.522,424.536s3.507,50.273-4.676,58.457,72.487,15.2,71.318,5.846S588.8,418.691,593.472,405.83,538.522,424.536,538.522,424.536Z" transform="translate(-346.988 -221.729)" fill="#ffb8b8"/>
      <path id="Path_139" data-name="Path 139" d="M538.522,424.536s3.507,50.273-4.676,58.457,72.487,15.2,71.318,5.846S588.8,418.691,593.472,405.83,538.522,424.536,538.522,424.536Z" transform="translate(-346.988 -221.729)" opacity="0.1"/>
      <path id="Path_140" data-name="Path 140" d="M489.431,541.057l-42.009,142.05-1.684,5.722H375.05c28.127-87.066,97.663-215.458,97.663-215.458l10.855-2.461Z" transform="translate(-375.05 -209.64)" fill="#1abc9c"/>
      <path id="Path_141" data-name="Path 141" d="M489.431,541.057l-42.009,142.05-1.684,5.722H375.05c28.127-87.066,97.663-215.458,97.663-215.458l10.855-2.461Z" transform="translate(-375.05 -209.64)" opacity="0.1"/>
      <ellipse id="Ellipse_13" data-name="Ellipse 13" cx="52.611" cy="52.611" rx="52.611" ry="52.611" transform="translate(152.954 115.122)" fill="#ffb8b8"/>
      <path id="Path_142" data-name="Path 142" d="M610.954,465.231s-18.706,17.537-39.751,14.03-29.879-29.1-29.879-29.1L520.93,465.231S515.084,507.32,541.974,512s65.472,5.846,73.656,0S610.954,465.231,610.954,465.231Z" transform="translate(-349.271 -213.32)" fill="#3f3d56"/>
      <path id="Path_143" data-name="Path 143" d="M690.281,526.321l-3.355,10.9L639.56,691.647H435.71a47.789,47.789,0,0,0,.954-5.722c2.637-21.982,1.083-77.436,1.083-81.25,0-4.686,19.862-120.421,24.56-128.616a7.6,7.6,0,0,1,2.79-2.331c5.451-3.132,17.508-6.64,30.506-9.737.012-.012.012-.012.023-.012,7.264-1.766,14.847-3.391,21.722-4.768h.012c6.746-1.354,12.8-2.461,17.225-3.191a70.518,70.518,0,0,1,7.217-1c1.083,0,1.872,1.283,2.4,3.25,1.778,6.4,1.1,20.121,1.1,20.121a35.524,35.524,0,0,0,5.251,4.921,66.7,66.7,0,0,0,14.67,8.748,87.009,87.009,0,0,0,13.916,4.745h.012a101.707,101.707,0,0,0,15.247,2.649,47.056,47.056,0,0,0,12.6-.247h.023c12.4-2.049,16.942-9.749,19.062-15.895.377-1.118.671-2.19.93-3.167,0-.012.012-.035.012-.047.777-3,1.107-5.11,1.931-5.074h.011c2.131.2,29.01,23.241,46.471,38.371,8.289,7.17,14.446,12.586,14.823,12.916Z" transform="translate(-364.291 -212.458)" fill="#1abc9c"/>
      <path id="Path_144" data-name="Path 144" d="M659.108,527.1,611.743,681.52h-19.2a12.636,12.636,0,0,0,2.107-8.642c-.612-4.309,12.727-48.213,25.573-89.068,11.68-37.122,22.947-71.69,22.947-71.69l11.1,5.251S656.259,521.127,659.108,527.1Z" transform="translate(-336.474 -202.33)" opacity="0.1"/>
      <path id="Path_145" data-name="Path 145" d="M691.748,668.159c-2.308.577-2.06,7.429-2.19,14.505H598.83a13.374,13.374,0,0,0,2.9-9.819c-.6-4.133,8.348-46.742,17.378-87.891,7.1-32.542,14.258-64.178,16.742-75.187.612-2.661.942-4.1.942-4.1l1.071.506.024.012,23.441,11.138.024.012s36.239,68.994,24.56,85.359c-11.7,16.365-11.7,16.365-7.029,24.56C683.554,635.428,696.41,666.993,691.748,668.159Z" transform="translate(-335.358 -203.474)" fill="#1abc9c"/>
      <ellipse id="Ellipse_14" data-name="Ellipse 14" cx="26.464" cy="26.464" rx="26.464" ry="26.464" transform="translate(181.911 14.115)" fill="#2f2e41"/>
      <path id="Path_146" data-name="Path 146" d="M525.858,275.464a26.464,26.464,0,0,1,23.816-26.331c-.869-.087-1.752-.134-2.645-.134a26.464,26.464,0,1,0,0,52.927c.893,0,1.776-.047,2.646-.134a26.465,26.465,0,0,1-23.817-26.329Z" transform="translate(-349.24 -248.999)" fill="#2f2e41"/>
      <path id="Path_147" data-name="Path 147" d="M544.979,335.886s-.552-3.076-22.164,5.028-34.566,67.911-23.761,103.029c4.355,14.153.812,24.357-4.969,31.5-21.7,26.792-13.156,67.033,18.447,80.81q1.338.583,2.731,1.153l13.507,8.1s-17.219-22.656-8.6-51.638A148.589,148.589,0,0,0,522.85,437.8c-.989-4.244-2.112-8.619-3.387-13.084-10.806-37.82-5.55-33.452,32.27-71.272,0,0,21.612,16.209,40.522,24.313s35.119,16.209,21.612,43.223-45.924,51.327-24.313,86.446,24.313,21.611,21.612,35.119h0l-2.7,13.507,16.209-16.209-10.806,21.612s35.119,0,45.924-27.014l5.4,5.4s21.611-37.82-18.91-72.938c0,0-13.507-8.1,5.4-35.119s4.387-85.095-19.926-95.9S544.979,335.886,544.979,335.886Z" transform="translate(-356.071 -234.44)" fill="#2f2e41"/>
      <path id="Path_148" data-name="Path 148" d="M419.928,296.659l-45.012,77.963h10.522v10.522l51.157-88.485Z" transform="translate(-214.363 -25.088)" fill="#3f3d56"/>
    </g>
  </g>
</svg>
